<svg id="_ÎÓÈ_1" data-name="—ÎÓÈ 1" xmlns="http://www.w3.org/2000/svg" viewBox="0 0 77.39 116.75"><defs><style>.cls-1{fill:#e66929;}.cls-2{fill:#f7a148;}.cls-3{fill:#310800;}.cls-4{fill:#fff;}.cls-5{fill:#e6525c;}.cls-6{fill:#7e4324;}</style></defs><path class="cls-1" d="M549.44,277.62c13,0,23.45,15.71,23.45,35.08a48.25,48.25,0,0,1-3.7,18.89c12.19-2,18.47-5.12,18.47-5.12,0-27.67-17.11-50.11-38.23-50.11s-38.23,22.44-38.23,50.11a90.81,90.81,0,0,0,18.39,4.93A48.32,48.32,0,0,1,526,312.7C526,293.33,536.49,277.62,549.44,277.62Z" transform="translate(-510.74 -221.51)"/><path class="cls-2" d="M569.2,331.59a48.25,48.25,0,0,0,3.7-18.89c0-19.37-10.5-35.08-23.45-35.08S526,293.33,526,312.7a48.32,48.32,0,0,0,3.61,18.7,117.42,117.42,0,0,0,19.84,1.69A125.1,125.1,0,0,0,569.2,331.59Z" transform="translate(-510.74 -221.51)"/><polygon class="cls-3" points="38.81 84.72 30.63 107.83 38.81 116.75 46.76 107.83 38.81 84.72"/><polygon class="cls-3" points="38.81 91.08 30.63 82.88 46.76 82.88 38.81 91.08"/><path class="cls-3" d="M549.44,297.74c-11.95,0-22.39-2.52-28.08-6.27a4.38,4.38,0,0,0-.09.86c0,6.1,12.61,13.9,28.17,13.9s28.17-7.81,28.17-13.9a4.53,4.53,0,0,0-.09-.86C571.83,295.23,561.38,297.74,549.44,297.74Z" transform="translate(-510.74 -221.51)"/><path class="cls-1" d="M541.84,243.85a76.08,76.08,0,0,0-9.18-14c-4-4.67-9.75-9.56-13.16-8.11-8.5,3.62-4.33,37.11-4.33,37.11l2.78.83Z" transform="translate(-510.74 -221.51)"/><path class="cls-1" d="M557,243.85a75.9,75.9,0,0,1,9.18-14c4-4.67,9.75-9.56,13.16-8.11,8.51,3.62,4.33,37.11,4.33,37.11l-2.78.83Z" transform="translate(-510.74 -221.51)"/><path class="cls-2" d="M535,244.51c2.57-2.31-1.27-7.7-4.08-11.34-1.8-2.33-7.54-9.23-10-7.66-4.56,2.86-4.6,31.44,1.57,27.7C529.65,248.85,531.46,247.7,535,244.51Z" transform="translate(-510.74 -221.51)"/><path class="cls-2" d="M563.86,244.51c-2.57-2.31,1.27-7.7,4.08-11.34,1.8-2.33,7.54-9.23,10-7.66,4.55,2.86,4.6,31.44-1.57,27.7C569.23,248.85,567.42,247.7,563.86,244.51Z" transform="translate(-510.74 -221.51)"/><path class="cls-1" d="M585.25,264.79c-2.1-13.94-12-18.89-25.78-22a50.55,50.55,0,0,0-10-1.17,49.6,49.6,0,0,0-10,1.17c-13.79,3.15-23.69,8.1-25.79,22-.93,6.15,2.27,18.55,5.55,23.84a23,23,0,0,0,9.59,8.24c2.56,1,7.52,1.34,10.25,1.75,3,.45,4.6,4.23,10.42,4.25h0c5.82,0,7.45-3.8,10.42-4.25,2.73-.41,7.69-.72,10.25-1.75a23,23,0,0,0,9.59-8.24C583,283.33,586.18,270.94,585.25,264.79Z" transform="translate(-510.74 -221.51)"/><path class="cls-4" d="M563.09,284.28c-1.19-.61-6-2.67-9.16-6.75s-.95-12.94-4.47-12.94-1.27,8.73-4.5,12.94-8,6.14-9.16,6.75c-2.61,1.19-4.34,3.26-4.34,5.62,0,3.68,4.2,6.67,9.37,6.67,3.86,0,7.17-1.66,8.61-4,1.44,2.37,4.75,4,8.61,4,5.18,0,9.37-3,9.37-6.67C567.42,287.53,565.69,285.46,563.09,284.28Z" transform="translate(-510.74 -221.51)"/><path class="cls-2" d="M555.48,274.22c-1.43-3.18-.58-9.06,6.45-12,5.17-2.13,9.92.41,11.11,3a9.28,9.28,0,0,1-5,12.33C561.72,280.22,556.88,277.33,555.48,274.22Z" transform="translate(-510.74 -221.51)"/><path class="cls-5" d="M555.94,285.21c-.37-1.61-6.36-1.57-6.51-1.57s-6.13,0-6.51,1.57c-.47,2,6.52,5.41,6.52,5.41S556.42,287.23,555.94,285.21Z" transform="translate(-510.74 -221.51)"/><path class="cls-6" d="M558,272.68s.08-5.49,4.7-7.4c3.4-1.4,6.51-.19,7.29,1.5a6.09,6.09,0,0,1-3.3,8.1C562.61,276.63,558,272.68,558,272.68Z" transform="translate(-510.74 -221.51)"/><ellipse class="cls-3" cx="564.77" cy="270.13" rx="1.95" ry="2.65" transform="translate(-553.5 -102.52) rotate(-11.59)"/><circle class="cls-4" cx="56.01" cy="48.33" r="1.07"/><path class="cls-2" d="M543.3,274.22c1.43-3.18.58-9.06-6.45-12-5.17-2.13-9.92.41-11.11,3a9.28,9.28,0,0,0,5,12.33C537.06,280.22,541.9,277.33,543.3,274.22Z" transform="translate(-510.74 -221.51)"/><path class="cls-6" d="M540.73,272.68s-.08-5.49-4.7-7.4c-3.4-1.4-6.51-.19-7.29,1.5a6.09,6.09,0,0,0,3.3,8.1C536.18,276.63,540.73,272.68,540.73,272.68Z" transform="translate(-510.74 -221.51)"/><ellipse class="cls-3" cx="534.02" cy="270.13" rx="2.65" ry="1.95" transform="translate(-348.67 517.45) rotate(-78.41)"/><circle class="cls-4" cx="25.26" cy="48.33" r="1.07"/><path class="cls-3" d="M586.82,261.86c-10.69-.62-19.88-.59-26.27-.52a9.26,9.26,0,0,0-5.94,2H544.27a9.26,9.26,0,0,0-5.94-2c-6.38-.07-15.58-.1-26.27.52-1,.06-1.65,2.25-1.13,4,.21.71,1.82,1,1.82,2.34s-2.77,11.47,17.59,11.47c4.39,0,11.08-.48,13.59-3.49,3-3.64,2.17-8.55,1.28-11.08h8.45c-.89,2.53-1.76,7.44,1.28,11.08,2.51,3,9.2,3.49,13.59,3.49,20.37,0,17.59-10.17,17.59-11.47s1.61-1.63,1.82-2.34C588.47,264.12,587.83,261.92,586.82,261.86Zm-56.39,16.46c-17.42,0-16.93-8.6-14.56-13.46,1-2,7.79-2.16,14.39-2.17,5.93,0,11.92-.36,13.09,2.51C545.34,270.12,546.29,278.32,530.43,278.32Zm38,0c-15.87,0-14.91-8.2-12.91-13.12,1.17-2.87,7.16-2.52,13.08-2.51,6.6,0,13.42.19,14.39,2.17C585.38,269.71,585.87,278.32,568.45,278.32Z" transform="translate(-510.74 -221.51)"/></svg>
