<svg id="_ÎÓÈ_1" data-name="—ÎÓÈ 1" xmlns="http://www.w3.org/2000/svg" viewBox="0 0 94.11 116.76"><defs><style>.cls-1{fill:#1f678a;}.cls-2{fill:#369fbf;}.cls-3{fill:#8f8a85;}.cls-4{fill:#fff;}.cls-5{fill:#cbc9c4;}.cls-6{fill:#605852;}.cls-7{fill:#b48748;}.cls-8{fill:#1b0d14;}.cls-9{fill:#231f20;}</style></defs><path class="cls-1" d="M753.64,321.18c-.08-27.24-21.12-50.73-47.05-50.73s-47,23.5-47.05,50.73c0,0,14.68,18.8,47,18.8C739,340,753.64,321.18,753.64,321.18Z" transform="translate(-659.53 -223.22)"/><path class="cls-2" d="M725.82,312.57c-6.82,9.82-19.23,13.84-19.23,13.84s-12.53-4.41-19.35-14.23c-.73-1.06-.15,5.35.39,6.52,3.84,8.24,19,11.71,19,11.71s15.31-3.84,19.15-12.08C726.29,317.17,726.55,311.51,725.82,312.57Z" transform="translate(-659.53 -223.22)"/><polygon class="cls-3" points="16.22 81.99 46.62 103.35 77.89 80.98 16.22 81.99"/><path class="cls-4" d="M740.94,301.15s-3.18,10.09-5.13,13.2a69,69,0,0,1-6.24,8.82c-1.41,1.54-.24,3.87-1.47,4.94-.9.79-3.6-4.25-4-6.31-.28-1.45,1.59-7.76.64-6.62-6.75,8.07-18.16,11.4-18.16,11.4s17.86-14,24-18.39C733.09,306.37,740.94,301.15,740.94,301.15Z" transform="translate(-659.53 -223.22)"/><path class="cls-4" d="M672.23,301.15s3.18,10.09,5.13,13.2a68.89,68.89,0,0,0,6.24,8.82c1.42,1.54.24,3.87,1.47,4.94.9.79,3.6-4.25,4-6.31.27-1.45-1.59-7.76-.64-6.62,6.75,8.07,18.16,11.4,18.16,11.4s-17.87-14-24-18.39C680.08,306.37,672.23,301.15,672.23,301.15Z" transform="translate(-659.53 -223.22)"/><path class="cls-5" d="M727.93,293.75c-5.4,1.21-21.35.33-21.35.33s-16,.88-21.35-.33c-11.5-2.58-19.22-11.94-22.11-13.26,0,21.38,20.71,30.27,33.33,30.27,6.84,0,7.51-2,10.13-2s3.29,2,10.13,2c12.61,0,33.33-7.56,33.33-30.27C747.15,281.81,739.43,291.18,727.93,293.75Z" transform="translate(-659.53 -223.22)"/><path class="cls-3" d="M706.58,237.81c-13.64,0-43.46,4.34-43.46,42.69,2.8,3.72,10.61,10.68,22.11,13.26,5.4,1.21,21.35.33,21.35.33s16,.88,21.35-.33A43,43,0,0,0,750,280.5C750,242.15,720.22,237.81,706.58,237.81Z" transform="translate(-659.53 -223.22)"/><path class="cls-3" d="M695.78,240.89s-14.05-21.66-22.69-17c-9.29,5,0,29.65,0,29.65Z" transform="translate(-659.53 -223.22)"/><path class="cls-6" d="M689.11,241.15c4-3.73-9.87-17.09-14.6-14.14s-2.78,22.3,2.71,20.85A24.54,24.54,0,0,0,689.11,241.15Z" transform="translate(-659.53 -223.22)"/><path class="cls-5" d="M680.16,267.19c.53-1.16,3,.14,4.3-.1,3.59-.67,8-1.17,11.92,2.25,1.83,1.61,4.43,8.26,3,9.27-.42.29-1.37-.82-1.88-.81-1.31,0-2.76,1.44-4.64,1.64-3.51.38-7-1.58-8.23-4.1-.86-1.74-.51-3.45-1.58-5.07C682.35,269.29,679.67,268.28,680.16,267.19Z" transform="translate(-659.53 -223.22)"/><path class="cls-7" d="M686.11,270.35a4.92,4.92,0,0,0,3.09,6.84c2.23.61,5.34.28,6.32-1.74,1.16-2.4.19-5.54-3.16-6.71C689.4,267.71,687.08,268.45,686.11,270.35Z" transform="translate(-659.53 -223.22)"/><ellipse class="cls-8" cx="690.59" cy="272.77" rx="3.13" ry="2.35" transform="translate(-364.24 678.09) rotate(-79.39)"/><circle class="cls-4" cx="30.23" cy="50.66" r="0.83"/><path class="cls-5" d="M717.07,285a14.68,14.68,0,0,0-10.49,4.41A14.68,14.68,0,0,0,696.09,285c-7.66,0-13.82,3.5-13.82,8.55,0,6.17,5.26,9.69,11.57,9.69,9,0,12.75-8.21,12.75-8.21s3.71,8.21,12.75,8.21c6.31,0,11.57-3.52,11.57-9.69C730.9,288.47,724.74,285,717.07,285Z" transform="translate(-659.53 -223.22)"/><path class="cls-3" d="M717.39,240.89s14.05-21.66,22.69-17c9.29,5,0,29.65,0,29.65Z" transform="translate(-659.53 -223.22)"/><path class="cls-6" d="M724.06,241.15c-4-3.73,9.87-17.09,14.6-14.14s2.78,22.3-2.71,20.85A24.55,24.55,0,0,1,724.06,241.15Z" transform="translate(-659.53 -223.22)"/><path class="cls-5" d="M733,267.19c-.53-1.16-3,.14-4.3-.1-3.59-.67-8-1.17-11.92,2.25-1.83,1.61-4.44,8.26-3,9.27.42.29,1.37-.82,1.88-.81,1.31,0,2.75,1.44,4.64,1.64,3.51.38,7-1.58,8.23-4.1.86-1.74.5-3.45,1.58-5.07C730.81,269.29,733.5,268.28,733,267.19Z" transform="translate(-659.53 -223.22)"/><path class="cls-7" d="M727.06,270.35a4.91,4.91,0,0,1-3.09,6.84c-2.23.61-5.34.28-6.32-1.74-1.16-2.4-.19-5.54,3.16-6.71C723.77,267.71,726.09,268.45,727.06,270.35Z" transform="translate(-659.53 -223.22)"/><ellipse class="cls-8" cx="722.58" cy="272.77" rx="2.35" ry="3.13" transform="translate(-697.41 -85.46) rotate(-10.61)"/><circle class="cls-4" cx="62.57" cy="50.66" r="0.84"/><path class="cls-6" d="M711.37,287.17c-.41-1.2-3.52-1.63-4.79-1.63s-4.38.43-4.78,1.63c-.16.48.65,1.53,1.13,1.7s1.77-.7,2.16-.24-.84.73-.81,1.23c.06,1,1.28,3.4,2.31,3.4s2.25-2.37,2.31-3.4c0-.5-1.13-.85-.81-1.23s1.59.43,2.16.24S711.53,287.66,711.37,287.17Z" transform="translate(-659.53 -223.22)"/><path class="cls-9" d="M722.54,293.05a5.27,5.27,0,0,1-4.58,2.54c-2.46,0-4.35-4.15-9.28-4.15a2.35,2.35,0,0,1-4.21,0c-4.93,0-6.82,4.15-9.28,4.15a5.27,5.27,0,0,1-4.58-2.54,5.55,5.55,0,0,0,4.08,5.17,7.5,7.5,0,0,0,3.57,0c.46-.07-2.31,1.41-1.71,1.56,3.21.84,7.11-.43,8.6-1.92a8.26,8.26,0,0,0,1.42-1.94A8.16,8.16,0,0,0,708,297.9c1.49,1.49,5.39,2.75,8.6,1.92.6-.16-2.17-1.63-1.71-1.56a7.51,7.51,0,0,0,3.57,0A5.55,5.55,0,0,0,722.54,293.05Z" transform="translate(-659.53 -223.22)"/><path class="cls-9" d="M748.14,262.72c-.93-.93-3.66,0-4.91-.41-.76-.24-1.44-1-2.2-1.23-4.93-1.58-15.7-1.31-20.71,0-2,.53-6,1.51-8.37,3.06H701.22c-2.38-1.55-6.33-2.53-8.37-3.06-5-1.31-15.78-1.58-20.71,0-.76.24-1.44,1-2.21,1.23-1.25.4-4-.52-4.91.41-.7.7-.43,3.07,0,4,.34.7,1.59.93,2.08,1.53,3.33,4.09-1.29,14.52,8.65,18.41,4,1.55,15.54,1.72,19.09-.63,4.11-2.71,8.43-12.14,8.45-17.78h6.57c0,5.64,4.33,15.07,8.45,17.78,3.56,2.34,15.13,2.18,19.1.63,9.94-3.88,5.31-14.31,8.64-18.41.49-.6,1.75-.83,2.08-1.53C748.57,265.79,748.84,263.42,748.14,262.72Zm-78.34,3.6-3.69-.48.22-1.69,3.69.48Zm22.3,18.19c-3.84,2.17-14.45,1.95-17.59-1.14-3.5-3.43-4.79-14.31-1.77-18.17,2.19-2.8,10.48-3.29,14-2.74,3.74.58,11.54,1.15,13.14,6.35C701.21,273.11,696,282.28,692.11,284.51Zm46.55-1.14c-3.15,3.09-13.76,3.31-17.6,1.14s-9.1-11.4-7.77-15.71c1.6-5.2,9.4-5.77,13.14-6.35,3.51-.54,11.8-.05,14,2.74C743.45,269.06,742.16,279.93,738.66,283.37Zm4.71-17-.22-1.69,3.69-.48.21,1.69Z" transform="translate(-659.53 -223.22)"/></svg>
