<svg id="_ÎÓÈ_1" data-name="—ÎÓÈ 1" xmlns="http://www.w3.org/2000/svg" viewBox="0 0 82.5 116.76"><defs><style>.cls-1{fill:#8d6d37;}.cls-2{fill:#f1f2f2;}.cls-3{fill:#b1a28b;}.cls-4{fill:#cea876;}.cls-5{fill:#cfa589;}.cls-6{fill:#282216;}.cls-7{fill:#afc176;}.cls-8{fill:#bcbec0;}</style></defs><path class="cls-1" d="M435.39,326.65c0-.6,0-1.2,0-1.8,0-31.92-17.28-55.34-38.6-55.34s-38.61,23.41-38.61,55.34c0,.6,0,1.2,0,1.8,0,0,18.14,8.91,38.82,8.91C417.25,335.56,435.39,326.65,435.39,326.65Z" transform="translate(-355.55 -218.8)"/><path class="cls-2" d="M420.95,291.1c0,21.51-10.81,36-24.14,36s-24.15-14.44-24.15-36,10.81-38.95,24.15-38.95S420.95,269.58,420.95,291.1Z" transform="translate(-355.55 -218.8)"/><path class="cls-3" d="M427,263.92Z" transform="translate(-355.55 -218.8)"/><path class="cls-4" d="M427,263.92c-2.08,1.74-1.63,5.27-3.28,9.71a35.67,35.67,0,0,1-3.24,6.21,14,14,0,0,1-6.34,4.41H379.45a13.94,13.94,0,0,1-6.33-4.41,35.78,35.78,0,0,1-3.24-6.21c-1.65-4.44-1.2-8-3.28-9.71a29.2,29.2,0,0,0-.6,7c.74,9.46,4.16,4.6,8.45,15.13,4.64,11.4,15.3,13.07,22.34,13.24h.06c7-.18,17.69-1.84,22.33-13.24,4.28-10.53,7.71-5.67,8.45-15.13A29.22,29.22,0,0,0,427,263.92Z" transform="translate(-355.55 -218.8)"/><path class="cls-3" d="M366.6,263.92Z" transform="translate(-355.55 -218.8)"/><path class="cls-1" d="M412.75,245.26a26.74,26.74,0,0,0-4.22-1.56c.3,5.68.29,12.43-1.5,12.43-2.46,0-2-8.65-4.43-8.78-1.31-.07-2.65,9.4-5.79,9.4-3,0-4.48-9.47-5.79-9.4-2.46.13-2,8.78-4.43,8.78-1.79,0-1.81-6.76-1.5-12.43a26.8,26.8,0,0,0-4.23,1.56c-9.34,4.51-15.1,12.68-16.77,20.1l.13.11a17.37,17.37,0,0,1,5.67,8.16,35.8,35.8,0,0,0,3.24,6.21,14,14,0,0,0,6.34,4.41h34.7a14,14,0,0,0,6.34-4.41,35.67,35.67,0,0,0,3.24-6.21,17.36,17.36,0,0,1,5.67-8.16l.13-.11C427.85,257.94,422.09,249.77,412.75,245.26ZM395.1,260l.08.1Zm.24.29,0,0Z" transform="translate(-355.55 -218.8)"/><path class="cls-1" d="M384.25,244.49s-6.77-7.47-8.72-10.2c-2.43-3.41-7.2-10.34-10.11-13.36-2.41-2.5-5.81-2.56-7.24-1.39-4.68,3.87-2,17-.66,23,.14.65,1.19,3.07,1.11,3.73-.11.92-.85,2-1,2.87-.34,2,1.55,5,1.46,7,0,.84-.73,4.2-.73,5,0,3.24,8.68,7.07,8.68,7.07Z" transform="translate(-355.55 -218.8)"/><path class="cls-1" d="M409.36,244.49s6.77-7.47,8.72-10.2c2.43-3.41,7.2-10.34,10.11-13.36,2.41-2.5,5.81-2.56,7.23-1.39,4.68,3.87,2,17,.66,23-.14.65-1.19,3.07-1.11,3.73.11.92.85,2,1,2.87.34,2-1.55,5-1.46,7,0,.84.73,4.2.73,5,0,3.24-8.68,7.07-8.68,7.07Z" transform="translate(-355.55 -218.8)"/><path class="cls-4" d="M408.13,277.41c-2.07-.7-4-2.88-4-7.25,0-5.06,4-10.78,8.31-11.88,6.72-1.7,10.5,2.81,11.12,5.59.54,2.45.76,6.54-2.31,9.78C418.44,276.59,411.55,278.56,408.13,277.41Z" transform="translate(-355.55 -218.8)"/><path class="cls-5" d="M375,244.73c.06-5.47-9.41-23.73-14.2-23-5.64.8,1.05,16.59.91,22.29,0,1-1,3.33-.26,4.76,2.63,5-2.64,10.11,1.86,12.65C367,263.48,374.91,249,375,244.73Z" transform="translate(-355.55 -218.8)"/><path class="cls-6" d="M406.39,270.51a11.55,11.55,0,0,1,3.71-7.6,8.94,8.94,0,0,1,3.27-1.75c3.17-.94,7.26.57,8,3.91,1,4.34-1.4,6.91-3.71,7.85-3.76,1.54-6.55.3-9.55-1.17C407.64,271.52,406.47,271,406.39,270.51Z" transform="translate(-355.55 -218.8)"/><path class="cls-7" d="M420.34,266.54c.29,2.31-1.35,6.14-6.33,6.19-2.54,0-5.22-1.41-5.53-3.46a6.52,6.52,0,0,1,4.58-7C418.72,261.1,420.06,264.38,420.34,266.54Z" transform="translate(-355.55 -218.8)"/><path class="cls-6" d="M414,263.92c-1,.11-1.95,1.7-1.95,3.58s1.31,3.4,2.34,3.39,2.05-1.43,2.05-3.5S415,263.81,414,263.92Z" transform="translate(-355.55 -218.8)"/><path class="cls-4" d="M385.82,277.41c2.07-.7,4-2.88,4-7.25,0-5.06-4-10.78-8.32-11.88-6.72-1.7-10.5,2.81-11.12,5.59-.54,2.45-.76,6.54,2.31,9.78C375.51,276.59,382.4,278.56,385.82,277.41Z" transform="translate(-355.55 -218.8)"/><path class="cls-6" d="M387.56,270.51a11.56,11.56,0,0,0-3.71-7.6,9,9,0,0,0-3.28-1.75c-3.17-.94-7.26.57-8,3.91-1,4.34,1.4,6.91,3.71,7.85,3.76,1.54,6.55.3,9.55-1.17C386.31,271.52,387.49,271,387.56,270.51Z" transform="translate(-355.55 -218.8)"/><path class="cls-7" d="M373.67,266.55c-.29,2.29,1.34,6.09,6.27,6.13,2.52,0,5.17-1.4,5.49-3.42a6.47,6.47,0,0,0-4.54-7C375.28,261.16,373.94,264.41,373.67,266.55Z" transform="translate(-355.55 -218.8)"/><path class="cls-6" d="M380,263.92c1,.11,1.94,1.7,1.94,3.58s-1.31,3.4-2.34,3.39-2-1.43-2-3.5S378.91,263.81,380,263.92Z" transform="translate(-355.55 -218.8)"/><path class="cls-5" d="M418.65,244.73c-.06-5.47,9.42-23.73,14.2-23,5.64.8-1.05,16.59-.91,22.29,0,1,1,3.33.26,4.76-2.63,5,2.64,10.11-1.86,12.65C426.63,263.48,418.69,249,418.65,244.73Z" transform="translate(-355.55 -218.8)"/><path class="cls-2" d="M396.81,287.38c0-9.69-17.35-9.64-17.35-1.91a8,8,0,0,0,8.13,8c5.25,0,8.28-2.62,9.23-4.43.95,1.81,4,4.43,9.22,4.43a8,8,0,0,0,8.13-8C414.15,277.75,396.81,277.93,396.81,287.38Z" transform="translate(-355.55 -218.8)"/><path class="cls-6" d="M386.58,256.14c2.46,0,2-8.65,4.43-8.78,1.31-.07,2.82,9.4,5.79,9.4,3.14,0,4.48-9.47,5.79-9.4,2.46.13,2,8.78,4.43,8.78,1.79,0,1.81-6.76,1.5-12.43l-.31-.09a50.86,50.86,0,0,0-11.77-1.33,47.88,47.88,0,0,0-11.06,1.33l-.31.09C384.78,249.38,384.79,256.14,386.58,256.14Z" transform="translate(-355.55 -218.8)"/><path class="cls-6" d="M401.13,282.78l-4.32,3.74-4.33-3.88.48-1.35,5.18-.38C398.22,280.9,401.13,282.78,401.13,282.78Z" transform="translate(-355.55 -218.8)"/><path class="cls-5" d="M400.62,279.73a20.61,20.61,0,0,0-3.81.09,20.64,20.64,0,0,0-3.82-.09c-.65.17-2,1.14-2,1.81,0,1.39.94,1.3,1.43,1.4s1.15-1.29,2-.85c2,1,.22,2.3.22,3.07s1.52,1.67,2.11,1.67,2.11-.78,2.11-1.67-1.8-2.06.22-3.07c.88-.44,1.49,1,2,.85s1.43,0,1.43-1.4C402.6,280.87,401.27,279.9,400.62,279.73Z" transform="translate(-355.55 -218.8)"/><path class="cls-6" d="M412.52,286s1.85,3.19-2,3.23c-2.33,0-5.06-2.69-8.53-3.64-2.79-.75-4.56.21-5.15,1.32-.59-1.11-2.36-2.07-5.15-1.32-3.47.94-6.2,3.66-8.53,3.64-3.89,0-2-3.23-2-3.23a2.92,2.92,0,0,0-1.8,3.52,3.46,3.46,0,0,0,3.48,2.35c.34,0-1,1-.72,1.11a7.24,7.24,0,0,0,4.62,0c.34-.1-1.36,1.12-1,1.17,4.54.69,9.92-1.23,11.14-4.54,1.22,3.3,6.6,5.22,11.14,4.54.35-.05-1.35-1.27-1-1.17a7.24,7.24,0,0,0,4.62,0c.32-.11-1.06-1.14-.72-1.11a3.45,3.45,0,0,0,3.48-2.35A2.92,2.92,0,0,0,412.52,286Z" transform="translate(-355.55 -218.8)"/><path class="cls-6" d="M437.47,258.3c0-.93-5-1.11-6.66-1.28-3.18-.32-9.5-1.37-12.69-1.37-7.41,0-15.78,3.09-21.31,3.09s-13.91-3.09-21.32-3.09c-3.19,0-9.52,1.05-12.7,1.37-1.66.17-6.63.34-6.65,1.28,0,1.33-.34,4.49.66,4.87a3.18,3.18,0,0,1,1.41.92c1.77,2.26,1.08,10.59,4.58,15,6,7.53,18,4,22.65.55,3.37-2.47,6.59-9.12,8.1-13.86.62-1.92,5.91-1.92,6.52,0,1.51,4.74,4.72,11.39,8.1,13.86,4.66,3.4,16.61,7,22.64-.55,3.5-4.36,2.82-12.69,4.58-15a3.18,3.18,0,0,1,1.41-.92C437.81,262.79,437.5,259.63,437.47,258.3Zm-78.93,3.32c-.76,0-1.37-.43-1.37-1s.61-1,1.37-1,1.37.43,1.37,1S359.3,261.62,358.54,261.62Zm23.26,18.18c-4.85,2.4-13.37,1.63-16.54-1.3s-5.15-13.52-2.81-17.29c1.78-2.88,9.5-3.66,12.83-3.66,3.79,0,12.94.9,14.48,4.42C391.72,266.41,388.18,276.65,381.8,279.81Zm46.54-1.3c-3.17,2.93-11.69,3.71-16.54,1.3-6.37-3.16-9.91-13.4-8-17.84,1.54-3.51,10.7-4.42,14.48-4.42,3.33,0,11,.78,12.83,3.66C433.49,265,431.59,275.49,428.34,278.5Zm6.72-16.88c-.76,0-1.37-.43-1.37-1s.61-1,1.37-1,1.37.43,1.37,1S435.82,261.62,435.06,261.62Z" transform="translate(-355.55 -218.8)"/><path class="cls-6" d="M396.23,305.61s-5.56-5.69-7.22-3.67c-1.21,1.47.12,3.1-.05,4.11-.13.79-1.08,1.51-.92,2.94.1.88.89,2.09,3.27,1.61,2.55-.52,4.88-3.3,4.88-3.3Z" transform="translate(-355.55 -218.8)"/><path class="cls-6" d="M397.38,305.61s5.55-5.69,7.22-3.67c1.21,1.47-.12,3.1.05,4.11.13.79,1.08,1.51.92,2.94-.1.88-.89,2.09-3.27,1.61-2.55-.52-4.88-3.3-4.88-3.3Z" transform="translate(-355.55 -218.8)"/><path class="cls-6" d="M398.19,306.63a1.21,1.21,0,0,1-1.21,1.21h-.4a1.21,1.21,0,0,1-1.21-1.21h0a1.21,1.21,0,0,1,1.21-1.21h.4a1.21,1.21,0,0,1,1.21,1.21Z" transform="translate(-355.55 -218.8)"/><circle class="cls-2" cx="41.25" cy="112.69" r="1.15"/><circle class="cls-8" cx="41.25" cy="103.48" r="1.15"/><circle class="cls-8" cx="41.25" cy="96.88" r="1.15"/></svg>
