<svg id="_ÎÓÈ_1" data-name="—ÎÓÈ 1" xmlns="http://www.w3.org/2000/svg" viewBox="0 0 89.93 106.14"><defs><style>.cls-1{fill:#58595b;}.cls-2{fill:#231f20;}.cls-3{fill:#414042;}.cls-4{fill:#a7a9ac;}.cls-5{fill:#f7574f;}.cls-6{fill:#fff;}</style></defs><path class="cls-1" d="M282.79,322.8c-1-39.1-17.27-70.21-37.23-70.21S209.3,283.7,208.33,322.8c0,0,11.57,10.77,37.55,10.77C272.08,333.57,282.79,322.8,282.79,322.8Z" transform="translate(-200.59 -227.42)"/><ellipse class="cls-1" cx="44.97" cy="73.7" rx="7.9" ry="4.29"/><path class="cls-2" d="M229.27,245.35s-20.7-22.07-27.12-17.24,9,30.74,9,30.74Z" transform="translate(-200.59 -227.42)"/><path class="cls-2" d="M261.85,245.35s20.7-22.07,27.12-17.24-9,30.74-9,30.74Z" transform="translate(-200.59 -227.42)"/><path class="cls-3" d="M225.54,247.2s-16.6-19.31-22.18-15.49,6.46,26.18,6.46,26.18Z" transform="translate(-200.59 -227.42)"/><path class="cls-3" d="M265.58,247.2s16.6-19.31,22.18-15.49-6.46,26.18-6.46,26.18Z" transform="translate(-200.59 -227.42)"/><path class="cls-1" d="M245.56,236c-22.13.13-40,15.09-40,33.52s17.9,33.39,40,33.52c22.13-.13,40-15.08,40-33.52S267.69,236.11,245.56,236Z" transform="translate(-200.59 -227.42)"/><path class="cls-2" d="M236.73,282c1.71-.49-.44-4.51-3.43-6.49-3.37-2.22-8.07-1.13-8.59,0a5.91,5.91,0,0,0,2.85,7.83C231.79,285.22,235.38,282.36,236.73,282Z" transform="translate(-200.59 -227.42)"/><ellipse class="cls-4" cx="230.31" cy="279.28" rx="3.66" ry="5.05" transform="translate(-300.9 199.3) rotate(-74.52)"/><ellipse class="cls-2" cx="29.8" cy="51.48" rx="1.68" ry="1.72"/><path class="cls-2" d="M254.39,282c-1.71-.49.44-4.51,3.44-6.49,3.37-2.22,8.07-1.13,8.59,0a5.9,5.9,0,0,1-2.85,7.83C259.33,285.22,255.74,282.36,254.39,282Z" transform="translate(-200.59 -227.42)"/><ellipse class="cls-4" cx="260.81" cy="279.28" rx="5.05" ry="3.66" transform="translate(-265.67 -147.69) rotate(-15.48)"/><ellipse class="cls-2" cx="60.14" cy="51.48" rx="1.68" ry="1.72"/><ellipse class="cls-5" cx="44.9" cy="73.93" rx="4.67" ry="5.65"/><ellipse class="cls-3" cx="36.73" cy="68.57" rx="8.56" ry="7.03"/><ellipse class="cls-3" cx="53.26" cy="68.57" rx="8.56" ry="7.03"/><path class="cls-2" d="M245.56,294.33c-1.89,0-6.26-3.69-5.36-5.36.64-1.18,3-.35,5.36-.35s4.72-.83,5.36.35C251.82,290.63,247.45,294.33,245.56,294.33Z" transform="translate(-200.59 -227.42)"/><path class="cls-2" d="M286.21,268.06c-10.79-.62-20.07-.6-26.52-.53-4.58.05-7.22,2.69-8.07,5.43H239.5c-.86-2.74-3.49-5.37-8.07-5.43-6.44-.07-15.73-.1-26.52.53-1,.06-1.66,2.27-1.14,4,.22.72,1.84,1,1.84,2.36s-2.8,18.29,17.76,18.29c10.68,0,14.94-5.44,15.89-12.35,0,0,.29-2.69,1.53-3.1a30.53,30.53,0,0,1,9.52,0c1.24.41,1.53,3.1,1.53,3.1,1,6.9,5.21,12.35,15.89,12.35,20.56,0,17.76-17,17.76-18.29s1.62-1.65,1.84-2.36C287.88,270.34,287.23,268.12,286.21,268.06Zm-62.78,22.76c-16.71,0-16.23-14.62-14-19.28.92-1.89,7.46-2.07,13.8-2.08,5.68,0,11-.14,12.55,2.41C238.64,276.61,238.64,290.82,223.43,290.82Zm44.27-.07c-15.12,0-15.12-14.12-12.31-18.83,1.52-2.54,6.82-2.4,12.47-2.4,6.29,0,12.79.18,13.71,2.06C283.83,276.22,284.3,290.75,267.7,290.75Z" transform="translate(-200.59 -227.42)"/><path class="cls-6" d="M258.59,312c-1.49-.81-5,1.39-6.52,2.12a33.67,33.67,0,0,0-3.12,2,3.65,3.65,0,0,0-6.77,0,33.88,33.88,0,0,0-3.12-2c-1.57-.73-5-2.93-6.52-2.12-2.84,1.54-2.89,9.7,0,11.18,1.45.74,5-1.63,6.49-2.29a36,36,0,0,0,3.2-1.87h0a3.64,3.64,0,0,0,6.61,0h0a35.82,35.82,0,0,0,3.2,1.87c1.52.66,5,3,6.49,2.29C261.48,321.7,261.42,313.53,258.59,312Z" transform="translate(-200.59 -227.42)"/></svg>
