<svg id="_ÎÓÈ_1" data-name="—ÎÓÈ 1" xmlns="http://www.w3.org/2000/svg" viewBox="0 0 75.12 124.09"><defs><style>.cls-1{fill:#efefef;}.cls-2{fill:#9c090b;}.cls-3{fill:#231f20;}.cls-4{fill:#ffbd00;}</style></defs><path class="cls-1" d="M706.58,809.54c14.93,0,28.33-9.21,37.56-23.83-5.13-48-20-82.78-37.56-82.78S674.16,737.67,669,785.71C678.25,800.33,691.66,809.54,706.58,809.54Z" transform="translate(-669.02 -685.45)"/><path class="cls-2" d="M723.66,721c-2-2.4-8.61-2.71-12.66.7a14.25,14.25,0,0,0-4.32,7.56,15.88,15.88,0,0,0-4.62-7.62c-4.05-3.41-10.53-3-12.56-.64s-.37,7.11,3.68,10.52,11.18,5.74,13.2,3.33a2.74,2.74,0,0,0,.44-.8,3,3,0,0,0,.41.67c2,2.4,8.7.2,12.76-3.21S725.68,723.35,723.66,721Z" transform="translate(-669.02 -685.45)"/><path class="cls-3" d="M705.28,789.92s-5.38-4.49-7.59-4.49c-2.56,0-2.77,1.88-3.1,2.89-.67,2-1,6.65,0,8.55a3.72,3.72,0,0,0,3.42,1.71c2,0,7.27-3.63,7.27-3.63Z" transform="translate(-669.02 -685.45)"/><path class="cls-3" d="M707.88,789.92s5.38-4.49,7.59-4.49c2.56,0,2.77,1.88,3.1,2.89.67,2,1,6.65,0,8.55a3.72,3.72,0,0,1-3.42,1.71c-2,0-7.27-3.63-7.27-3.63Z" transform="translate(-669.02 -685.45)"/><rect class="cls-3" x="34.76" y="104.14" width="5.59" height="5.59" rx="1.55" ry="1.55"/><path class="cls-1" d="M719.54,722.39l-4.13,2.17c-.53,1.71,0,3.42,1.3,3.87s2.88-.59,3.51-2.36A3.37,3.37,0,0,0,719.54,722.39Z" transform="translate(-669.02 -685.45)"/><ellipse class="cls-3" cx="717.96" cy="725.76" rx="1.29" ry="0.87" transform="translate(-873.87 476.92) rotate(-70.63)"/><path class="cls-1" d="M693.94,722.39l4.14,2.17c.53,1.71,0,3.42-1.3,3.87s-2.89-.59-3.5-2.36A3.36,3.36,0,0,1,693.94,722.39Z" transform="translate(-669.02 -685.45)"/><ellipse class="cls-3" cx="695.52" cy="725.76" rx="0.87" ry="1.29" transform="translate(-870.29 -413.83) rotate(-19.36)"/><path class="cls-2" d="M711.42,737.17s11,14.71,12.7,24.87c1.48,8.87-5.6,16.19-10.48,13.87C700.83,769.79,711.42,737.17,711.42,737.17Z" transform="translate(-669.02 -685.45)"/><path class="cls-2" d="M701.74,737.17s-11,14.71-12.7,24.87c-1.48,8.87,5.6,16.19,10.48,13.87C712.34,769.79,701.74,737.17,701.74,737.17Z" transform="translate(-669.02 -685.45)"/><ellipse class="cls-2" cx="37.56" cy="31.16" rx="6.19" ry="31.16"/><path class="cls-4" d="M706.57,747.71c-3.36,0-12.39-7.78-9.51-9.51,6-3.62,6.15-9.51,9.51-9.51s2,5.44,9.51,9.51C719,739.8,709.93,747.71,706.57,747.71Z" transform="translate(-669.02 -685.45)"/><path class="cls-3" d="M731.68,720c-.56-.56-2.21,0-3-.25-.46-.15-.87-.6-1.33-.74-3-1-9.48-.79-12.51,0a19,19,0,0,0-5.05,1.85h-6.48a19,19,0,0,0-5.05-1.85c-3-.79-9.53-1-12.51,0-.46.15-.87.59-1.33.74-.75.24-2.4-.31-3,.25s-.26,1.85,0,2.4,1,.56,1.26.92c2,2.47-.78,8.77,5.22,11.12,2.39.94,9.38,1,11.53-.38,2.48-1.64,5.09-7.33,5.1-10.74h4c0,3.41,2.62,9.1,5.1,10.74,2.15,1.41,9.13,1.31,11.53.38,6-2.35,3.21-8.64,5.22-11.12.3-.36,1.05-.5,1.26-.92S732.1,720.42,731.68,720Zm-47.3,2.17-2.23-.29.13-1,2.23.29Zm13.47,11c-2.32,1.31-8.72,1.17-10.62-.69-2.11-2.07-2.9-8.64-1.07-11,1.33-1.69,6.33-2,8.45-1.66s7,.69,7.93,3.83C703.34,726.27,700.22,731.81,697.84,733.15Zm28.11-.69c-1.9,1.86-8.31,2-10.62.69s-5.5-6.88-4.69-9.49c1-3.14,5.68-3.48,7.93-3.83s7.13,0,8.45,1.66C728.84,723.82,728.06,730.39,726,732.46Zm2.84-10.29-.13-1,2.23-.29.13,1Z" transform="translate(-669.02 -685.45)"/></svg>
