<svg id="_ÎÓÈ_1" data-name="—ÎÓÈ 1" xmlns="http://www.w3.org/2000/svg" viewBox="0 0 120.19 154.21"><defs><style>.cls-1{fill:#cb9e65;}.cls-2{fill:#82634e;}.cls-3{fill:#231f20;}.cls-4{fill:#fff;}.cls-5{fill:#f2e6d6;}.cls-6{fill:#1c314b;}.cls-7{fill:#c3000a;}</style></defs><path class="cls-1" d="M580.69,565.11c-6.43,1.28-9.17,9.69-12.62,7.63-.53-.32-.45-1.06-.36-1.83a2.94,2.94,0,0,0-.12-1.86c-1.82-2.79-5.92-3.06-8.32-3.06h-.21c-2.48.05-7.51,1-8.9,2.92a1.18,1.18,0,0,1-1.48,0c-1.39-1.87-6.42-2.86-8.9-2.92h-.21c-2.39,0-6.5.27-8.32,3.06a2.94,2.94,0,0,0-.12,1.86c.1.77.17,1.51-.36,1.83-3.44,2.06-6.19-6.35-12.62-7.63-3.69-.73-16.66-2.88-16.92.88-.24,3.44,12.15,15.73,14.52,16.27,4.44,1,9.24-2.54,9.21.09-.06,5.12,2.11,23.73,2,31.67,0,1.88-.79,5.6-.7,7.48s.36,5.95,1.35,7.85l21.82,15.18,21.83-15.18c1-1.9,1.26-5.88,1.35-7.85s-.67-5.6-.7-7.48c-.13-7.93,2-26.54,2-31.67,0-2.63,4.76.93,9.2-.09,2.37-.54,14.76-12.83,14.52-16.27C597.36,562.23,584.39,564.37,580.69,565.11Z" transform="translate(-489.34 -506.4)"/><path class="cls-2" d="M531.27,569c1.82-2.79,5.92-3.06,8.32-3.06h.21a15,15,0,0,1-1-3.43c-.37-5.45,2.68-10.67,2.79-13.34.24-5.76-1.4-23.25-2.79-22.87-1.24.34-1.29,16.36-2.29,21.73-.52,2.78-2.67,6.86-2.92,9.4-.1,1-3.58,1-4.07.13-2.54-4.7-6.21-6.92-7.62-10.1-1.63-3.68-1.53-15.95-4.07-15.57-1.46.22-.32,10.81-.06,17.92.08,2.12,6.39,7.39,4.67,8.64-1,.72-9.69-1.3-12.61-2.67-1.54-.72-2.93-2.74-3.82-4.19-2.17-3.53-6-12.31-4.73-16.27.4-1.27,3.42-2.42,3.84-3.68,2.29-6.86,6.61-13,5.21-13.34-.67-.18-3.87,3.4-5.08,5.21-.67,1-1.13,3.51-1.9,4.45-.61.74-2.89,3.07-3.18,2.16-3.18-10.17,1.24-23.62-1-23.76-1.65-.1-4.62,11.55-4.7,15.63,0,2.26,1.09,7.65,1.27,9.91.29,3.63.38,11.44-.38,13.34s-4.57-7.07-5.72-5.46c-1.27,1.78,2.69,8.69,4.83,11.05.84.93,3.82,2.31,4.83,3,2.21,1.62,5.68,6.15,8.13,7.37,3.82,1.9,12.92,1.34,16.77,3.18,2.07,1,4.65,4.93,7,6.43A2.94,2.94,0,0,1,531.27,569Z" transform="translate(-489.34 -506.4)"/><path class="cls-2" d="M609.29,539.82c-1.15-1.61-5,7.3-5.72,5.46s-.67-9.71-.38-13.34c.18-2.26,1.31-7.65,1.27-9.91-.07-4.08-3-15.73-4.7-15.63-2.26.14,2.16,13.59-1,23.76-.29.92-2.56-1.42-3.18-2.16-.77-.93-1.23-3.44-1.91-4.45-1.21-1.81-4.41-5.39-5.08-5.21-1.4.38,2.92,6.48,5.21,13.34.42,1.26,3.44,2.42,3.84,3.68,1.25,4-2.56,12.73-4.72,16.27-.89,1.45-2.28,3.48-3.82,4.19-2.92,1.37-11.63,3.39-12.61,2.67-1.72-1.24,4.6-6.52,4.67-8.64.26-7.11,1.4-17.7-.06-17.92-2.54-.38-2.43,11.89-4.07,15.57-1.41,3.17-5.08,5.4-7.62,10.1-.48.89-4,.89-4.07-.13-.25-2.54-2.41-6.62-2.92-9.4-1-5.37-1-21.39-2.29-21.73-1.4-.38-3,17.12-2.79,22.87.12,2.68,3.16,7.89,2.79,13.34a15.07,15.07,0,0,1-1,3.43h.21c2.39,0,6.5.27,8.32,3.06a2.94,2.94,0,0,1,.12,1.86c2.35-1.51,4.93-5.45,7-6.43,3.85-1.84,13-1.28,16.78-3.18,2.46-1.22,5.92-5.75,8.13-7.37,1-.74,4-2.12,4.83-3C606.59,548.51,610.56,541.6,609.29,539.82Z" transform="translate(-489.34 -506.4)"/><path class="cls-2" d="M504.45,567.39c0-1.24,6.11,1.25,8,2.42,3.26,2,11.17,9.16,9.79,10.17-.64.46-5-.65-6.86-1.4C511.56,577,504.46,569,504.45,567.39Z" transform="translate(-489.34 -506.4)"/><path class="cls-3" d="M538.51,591.28c1.08-.76-1.85-3.55-4-4-1.68-.33-4.81.62-4.5,1.88.11.42.79.18,1.16.42.72.46.91,1.95,3.1,2.44a9.12,9.12,0,0,0,3-.57C537.91,591.3,538.39,591.36,538.51,591.28Z" transform="translate(-489.34 -506.4)"/><circle class="cls-4" cx="45.52" cy="82.83" r="0.84"/><path class="cls-2" d="M594.42,567.39c0-1.24-6.11,1.25-8,2.42-3.26,2-11.17,9.16-9.79,10.17.64.46,5-.65,6.86-1.4C587.32,577,594.41,569,594.42,567.39Z" transform="translate(-489.34 -506.4)"/><path class="cls-3" d="M560.36,591.28c-1.08-.76,1.85-3.55,4-4,1.68-.33,4.81.62,4.49,1.88-.11.42-.79.18-1.16.42-.72.46-.9,1.95-3.1,2.44a9.13,9.13,0,0,1-3-.57C561,591.3,560.48,591.36,560.36,591.28Z" transform="translate(-489.34 -506.4)"/><path class="cls-5" d="M552.52,586.55c-.1-.78-3.08-.57-3.08-.57s-3-.21-3.08.57c-1.37,10.75-8.53,15.83-8.86,22.21-.67,12.67,11.94,11.82,11.94,11.82s12.61.86,11.94-11.82C561,602.38,553.89,597.29,552.52,586.55Z" transform="translate(-489.34 -506.4)"/><circle class="cls-4" cx="74.67" cy="82.83" r="0.84"/><path class="cls-2" d="M555.73,604.17c-2.11-.24-3.08,2.27-4.26,2.74a5.61,5.61,0,0,1-4.06,0c-1.18-.47-2.15-3-4.26-2.74-1.66.19-3.19,4.93-2.22,6.29.35.49,1.75.28,2.29.54.73.35.94,2,2.16,2h8.13c1.21,0,1.42-1.65,2.15-2,.55-.26,1.95,0,2.29-.54C558.91,609.11,557.38,604.36,555.73,604.17Z" transform="translate(-489.34 -506.4)"/><polygon class="cls-6" points="38.27 122.94 38.23 122.92 35.33 131.81 52.89 149.19 60.09 138.12 38.27 122.94"/><polygon class="cls-6" points="81.95 122.92 81.92 122.94 60.09 138.12 67.3 149.19 84.86 131.81 81.95 122.92"/><polygon class="cls-7" points="63.69 143.64 60.09 138.12 56.5 143.64 59.4 146.68 56.8 151.15 60.09 154.21 63.39 151.15 60.79 146.68 63.69 143.64"/><path class="cls-3" d="M568.36,611.43s2.23,3.84-2.46,3.88c-2.8,0-6.09-3.24-10.26-4.38-3.35-.91-5.49.25-6.2,1.59-.71-1.34-2.84-2.5-6.2-1.59-4.17,1.13-7.46,4.4-10.26,4.38-4.69,0-2.46-3.88-2.46-3.88a3.52,3.52,0,0,0-2.17,4.24,4.16,4.16,0,0,0,4.19,2.83c.41,0-1.25,1.21-.87,1.34a8.71,8.71,0,0,0,5.57,0c.41-.12-1.64,1.34-1.22,1.41,5.47.83,11.94-1.49,13.41-5.46,1.47,4,7.95,6.29,13.41,5.46.43-.07-1.63-1.52-1.21-1.41a8.71,8.71,0,0,0,5.56,0c.39-.13-1.27-1.37-.87-1.34a4.16,4.16,0,0,0,4.19-2.83A3.52,3.52,0,0,0,568.36,611.43Z" transform="translate(-489.34 -506.4)"/><path class="cls-6" d="M577.16,583.58c-.62-.62-2.44,0-3.27-.27-.51-.16-1-.66-1.47-.82-3.29-1.05-10.48-.87-13.82,0a21,21,0,0,0-5.58,2h-7.16a20.93,20.93,0,0,0-5.58-2c-3.34-.87-10.53-1.05-13.82,0-.51.16-1,.66-1.47.82-.83.27-2.65-.35-3.27.27-.47.47-.29,2,0,2.65s1.06.62,1.39,1c2.22,2.73-.86,9.69,5.77,12.28,2.64,1,10.37,1.14,12.74-.42,2.74-1.81,5.62-8.1,5.64-11.86h4.38c0,3.76,2.89,10.05,5.64,11.86,2.37,1.57,10.09,1.45,12.74.42,6.63-2.59,3.54-9.55,5.77-12.28.33-.4,1.17-.55,1.39-1S577.63,584,577.16,583.58ZM524.89,586l-2.46-.32.14-1.13,2.46.32Zm14.88,12.14c-2.56,1.45-9.64,1.3-11.74-.76-2.33-2.29-3.2-9.55-1.18-12.12,1.46-1.87,7-2.19,9.34-1.83s7.7.76,8.77,4.23C545.85,590.51,542.4,596.63,539.78,598.12Zm31.06-.76c-2.1,2.06-9.18,2.21-11.74.76s-6.07-7.6-5.18-10.48c1.07-3.47,6.27-3.85,8.77-4.23s7.88,0,9.34,1.83C574,587.81,573.17,595.07,570.84,597.36ZM574,586l-.15-1.13,2.46-.32.14,1.13Z" transform="translate(-489.34 -506.4)"/></svg>
