<svg id="_ÎÓÈ_1" data-name="—ÎÓÈ 1" xmlns="http://www.w3.org/2000/svg" viewBox="0 0 81.27 105.09"><defs><style>.cls-1{fill:#231f20;}.cls-2{fill:#a7a9ac;}.cls-3{fill:#414042;}.cls-4{fill:#c3000a;}.cls-5{fill:#cb9e65;}.cls-6{fill:#98784a;}.cls-7{fill:#fff;}</style></defs><path class="cls-1" d="M383.56,470l-8.82-4.13,3.09-14.18a36.35,36.35,0,0,0-5.76,6.4,44,44,0,0,0-7.77,25.37h0a122.33,122.33,0,0,0,23.59,4.61l-6.92-12Z" transform="translate(-356.16 -383.47)"/><path class="cls-1" d="M430,483.48a44,44,0,0,0-7.77-25.37,36,36,0,0,0-6.74-7.22l3.27,15L410,470l2.59,6.11-7,12A129.25,129.25,0,0,0,430,483.49Z" transform="translate(-356.16 -383.47)"/><path class="cls-2" d="M389.36,460.56l6,28c.61,0,1.21,0,1.82,0l1,0,6-27.93Z" transform="translate(-356.16 -383.47)"/><path class="cls-3" d="M389.67,462l-3.33-15.6-.46-2.14-7.72,6.05-.31,1.44-3.09,14.18,8.82,4.13-2.6,6.11,6.92,12,.48,0c2.25.2,4.6.32,7,.37Z" transform="translate(-356.16 -383.47)"/><path class="cls-3" d="M418.78,465.89l-3.27-15-.13-.61-7.72-6.05-.4,1.86L403.87,462l-5.68,26.57c2.48,0,4.95-.15,7.34-.36h.08l7-12L410,470Z" transform="translate(-356.16 -383.47)"/><polygon class="cls-4" points="41 60.71 41 60.71 41 60.71 41 60.71"/><path class="cls-5" d="M421.66,388c-3.84-5-24.85-4.56-24.85-4.56s-21-.42-24.86,4.56c-4.15,5.39-4.11,22.36-3,29.08s5.83,19.72,8.45,26c8.62,20.8,12.72,18,19.45,18s10.82,2.77,19.45-18c2.62-6.32,7.38-19.28,8.45-26S425.81,393.43,421.66,388Z" transform="translate(-356.16 -383.47)"/><path class="cls-6" d="M377.55,383.86c-1-1.1-4.31.44-5.75.84s-3.13,2.38-4.57,2.71c-2.21.51-6.42-1-8.14.45-3.08,2.67-3.85,11.64-1.76,15.14,2.82,4.75,1.82,8.37,4.49,9.07,4.8,1.25,12.07-7.73,14.38-12.12C378.09,396.38,380.29,386.83,377.55,383.86Z" transform="translate(-356.16 -383.47)"/><path class="cls-7" d="M386,422.64c1.77,0-.74-5.43-3.5-6.21-2.43-.69-6.4-.11-5.77,1.47,1.21,3.05,2.4,4.25,3.84,4.74C381.9,423.08,384.57,422.64,386,422.64Z" transform="translate(-356.16 -383.47)"/><circle class="cls-1" cx="25.81" cy="35.75" r="2.16"/><circle class="cls-7" cx="25.81" cy="34.89" r="0.65"/><path class="cls-7" d="M407.58,422.64c-1.77,0,.74-5.43,3.5-6.21,2.43-.69,6.4-.11,5.77,1.47-1.21,3.05-2.4,4.25-3.84,4.74C411.72,423.08,409,422.64,407.58,422.64Z" transform="translate(-356.16 -383.47)"/><circle class="cls-1" cx="55.48" cy="35.75" r="2.16"/><circle class="cls-7" cx="55.48" cy="34.89" r="0.65"/><path class="cls-6" d="M416,383.86c1-1.1,4.31.44,5.75.84s3.13,2.38,4.57,2.71c2.21.51,6.42-1,8.14.45,3.08,2.67,3.85,11.64,1.76,15.14-2.82,4.75-1.82,8.37-4.49,9.07-4.8,1.25-12.07-7.73-14.38-12.12C415.51,396.38,413.31,386.83,416,383.86Z" transform="translate(-356.16 -383.47)"/><path class="cls-7" d="M407.79,438.59c-1.51-2.64-5.4-5.33-6.56-8.14-3-7.16-.29-23-.11-30.74.11-5-4.32-5-4.32-5s-4.43,0-4.32,5c.18,7.74,2.84,23.58-.11,30.74-1.16,2.81-5,5.5-6.56,8.14s-5.45,11.58-3.84,14.35c6.51,11.19,10.51,9,14.82,9s8.31,2.16,14.82-9C413.23,450.16,409.38,441.37,407.79,438.59Z" transform="translate(-356.16 -383.47)"/><path class="cls-1" d="M396.8,447.05c-2.26,0-7.69.4-7.69,4.78,0,1.22.59,3.71,2.24,3.71,1,0,.85-1,1.34-1.39a.82.82,0,0,1,1.25.4c.54,2.32,1.94,2.32,2.86,2.32s2.32,0,2.86-2.32a.82.82,0,0,1,1.25-.4c.49.39.36,1.39,1.34,1.39,1.64,0,2.23-2.49,2.23-3.71C404.49,447.46,399.07,447.05,396.8,447.05Z" transform="translate(-356.16 -383.47)"/><path class="cls-4" d="M428.62,414.14c-1.89-.14-3.09-.88-4.49-1-3.76-.29-11.36-.55-15.09,0-1.92.28-5.53,1.88-7.44,2.25a75.27,75.27,0,0,1-9.57,0c-1.91-.37-5.52-2-7.45-2.25-3.73-.55-11.33-.29-15.09,0-1.4.1-2.6.84-4.49,1-1,.07-1.59,2.87-1.19,3.75.26.58,1.2.62,1.55,1.14,1.81,2.74,1.4,10,4.91,12.38,4.1,2.79,12.06,2,15.23.21,4.92-2.81,5.91-8,8.26-12.4.3-.56,5.81-.56,6.11,0,2.35,4.45,3.35,9.59,8.26,12.4,3.17,1.81,11.13,2.58,15.23-.21,3.51-2.39,3.1-9.64,4.91-12.38.35-.53,1.29-.57,1.55-1.14C430.21,417,429.59,414.21,428.62,414.14Zm-60.61,3h-2.67v-.88H368Zm15.66,13.69c-3.13,1.09-10.87,1.51-13.13-.91-2.43-2.61-2.77-10.91-.49-13.65,1.7-2.06,8-2.65,10.61-2.28s9.06,1.19,9.89,4.77S388.47,429.17,383.66,430.85Zm39.41-.91c-2.26,2.43-10,2-13.13.91-4.81-1.67-7.69-8.61-6.88-12.07s7.17-4.4,9.89-4.77,8.91.22,10.61,2.28C425.83,419,425.5,427.33,423.07,429.93Zm5.2-12.78H425.6v-.88h2.67Z" transform="translate(-356.16 -383.47)"/><circle class="cls-1" cx="40.6" cy="89.84" r="0.89"/><circle class="cls-1" cx="40.6" cy="96.14" r="0.89"/></svg>
