<svg id="Layer_1" data-name="Layer 1" xmlns="http://www.w3.org/2000/svg" viewBox="0 0 108.72 103.06"><defs><style>.cls-1{fill:#fff;}.cls-2{fill:#ab5922;}.cls-3{fill:#f0822b;}.cls-4{fill:#231f20;}</style></defs><path class="cls-1" d="M297.85,422.12c-17.16,0-31.07,20.63-31.07,42.51a94.12,94.12,0,0,0,62.14,0C328.92,442.75,315,422.12,297.85,422.12Z" transform="translate(-243.39 -369.17)"/><path class="cls-1" d="M351.37,423a61.57,61.57,0,0,0-10.35-.87c-15.57,0-29,5.69-35.58,14,.23.44.37.69.37.69H289.68l.17-.31c-6.42-8.49-20.08-14.35-35.89-14.35a61.62,61.62,0,0,0-9.87.79c4.54,14.86,27,14,43.16,17.65a8.36,8.36,0,0,0-.26,2c0,2.46,1.2,10.24,10.85,10.24,9.45,0,10.64-7.78,10.64-10.24a8.31,8.31,0,0,0-.26-2C324.38,436.9,346.77,437.76,351.37,423Z" transform="translate(-243.39 -369.17)"/><path class="cls-2" d="M259.24,370.51s-2.07,4.4.45,23.58c1.19,9.1,4.93,10,4.93,10l11.64-10.59Z" transform="translate(-243.39 -369.17)"/><path class="cls-2" d="M336.25,370.51s2.07,4.4-.45,23.58c-1.19,9.1-4.93,10-4.93,10L319.24,393.5Z" transform="translate(-243.39 -369.17)"/><path class="cls-1" d="M342.08,405.59c-9.7-1.64-13.83-7.76-14.63-12.68-1.49-9.25,12.09-23.73,12.09-23.73s-12.54,0-24.18,10.9c-.38.35-8.68-2.21-17.14-2.2-8.77,0-17.7,2.56-18.09,2.2-11.64-10.9-24.18-10.9-24.18-10.9S269.53,383.65,268,392.9c-.79,4.93-4.93,11-14.63,12.68-1.84.31,5.11,3.2,5.65,5.16,0,0,10.41-11.27,23.16-6.65,10.3,3.73,12.1,10.57,12.39,15.52.45,7.76-4.93,17.17-4.93,17.17h16.12s-5.37-9.41-4.93-17.17c.29-5,2.09-11.79,12.39-15.52,12.75-4.62,23.15,6.65,23.16,6.65C337,408.78,343.91,405.9,342.08,405.59Z" transform="translate(-243.39 -369.17)"/><path class="cls-3" d="M289.85,436.47c.9-1.67,5.16-9.92,4.76-16.86-.29-5-2.09-11.79-12.39-15.52-12.75-4.62-23.16,6.65-23.16,6.65a.82.82,0,0,1,0,.36c-.39,2.12-8.06,1.79-10.75,2.24-1.09.18,7.31,4.78,4.33,5.52-7.38,1.85-9.55-1.87-9.25.75a18.32,18.32,0,0,0,.68,3.29,61.62,61.62,0,0,1,9.87-.79C269.78,422.12,283.44,428,289.85,436.47Z" transform="translate(-243.39 -369.17)"/><path class="cls-3" d="M341,422.12a61.57,61.57,0,0,1,10.35.87,18.44,18.44,0,0,0,.71-3.37c.3-2.62-1.87,1.1-9.25-.75-3-.75,5.42-5.34,4.33-5.52-2.68-.45-10.36-.12-10.75-2.24a.79.79,0,0,1,0-.36s-10.41-11.27-23.16-6.65c-10.3,3.73-12.1,10.57-12.39,15.52-.37,6.51,3.35,14.18,4.55,16.48C312,427.81,325.44,422.12,341,422.12Z" transform="translate(-243.39 -369.17)"/><path class="cls-1" d="M286.37,416.27a3.22,3.22,0,1,1-4.86-4.11A18.56,18.56,0,0,0,277,412s1.64,4.68,3.66,6.26c2.44,1.92,7.54,1.5,7.54,1.5S287.4,418,286.37,416.27Z" transform="translate(-243.39 -369.17)"/><path class="cls-4" d="M280.39,414.6a3.22,3.22,0,0,0,6,1.68,11.71,11.71,0,0,0-2.5-3.23,5.9,5.9,0,0,0-2.36-.88A3.21,3.21,0,0,0,280.39,414.6Z" transform="translate(-243.39 -369.17)"/><circle class="cls-1" cx="39.76" cy="45.89" r="0.81"/><polygon class="cls-4" points="62.42 67.61 46.3 67.61 54.46 74.54 62.42 67.61"/><path class="cls-1" d="M309.12,416.27a3.22,3.22,0,1,0,4.86-4.11,18.56,18.56,0,0,1,4.51-.16s-1.64,4.68-3.66,6.26c-2.44,1.92-7.54,1.5-7.54,1.5S308.09,418,309.12,416.27Z" transform="translate(-243.39 -369.17)"/><path class="cls-4" d="M315.1,414.6a3.22,3.22,0,0,1-6,1.68,11.66,11.66,0,0,1,2.51-3.23,5.91,5.91,0,0,1,2.36-.88A3.22,3.22,0,0,1,315.1,414.6Z" transform="translate(-243.39 -369.17)"/><circle class="cls-1" cx="68.95" cy="45.89" r="0.81"/><path class="cls-4" d="M280.24,402.73a13.82,13.82,0,1,0,13.82,13.82A13.82,13.82,0,0,0,280.24,402.73Zm0,26.08a12.26,12.26,0,1,1,12.26-12.26A12.27,12.27,0,0,1,280.24,428.81Z" transform="translate(-243.39 -369.17)"/><rect class="cls-4" x="18.07" y="45.42" width="5.89" height="2.69"/><rect class="cls-4" x="19.1" y="45.42" width="1.31" height="57.63"/><path class="cls-4" d="M310.51,442.37S312,445,308.86,445c-1.89,0-4.1-2.19-6.92-3-2.21-.6-3.63.13-4.14,1-.51-.88-1.93-1.61-4.14-1-2.81.76-5,3-6.92,3-3.16,0-1.66-2.62-1.66-2.62a2.18,2.18,0,0,0-1.46,2.85c1.64,5.69,13,2.81,14.18.15,1.17,2.66,12.54,5.54,14.18-.15A2.18,2.18,0,0,0,310.51,442.37Z" transform="translate(-243.39 -369.17)"/><rect class="cls-4" x="53.09" y="90.46" width="2.89" height="2.8"/><path class="cls-4" d="M299.95,459.63v2.8s3.82,2.76,5,2c1.53-.93,1.5-5.52,0-6.55C303.94,457.11,299.95,459.63,299.95,459.63Z" transform="translate(-243.39 -369.17)"/><path class="cls-4" d="M295.89,459.63v2.8s-3.82,2.76-5,2c-1.53-.93-1.5-5.52,0-6.55C291.9,457.11,295.89,459.63,295.89,459.63Z" transform="translate(-243.39 -369.17)"/></svg>
