<svg id="_ÎÓÈ_1" data-name="—ÎÓÈ 1" xmlns="http://www.w3.org/2000/svg" viewBox="0 0 108.72 103.06"><defs><style>.cls-1{fill:#f0812a;}.cls-2{fill:#fff;}.cls-3{fill:#4d2a06;}.cls-4{fill:#ac5f29;}.cls-5{fill:#231f20;}</style></defs><path class="cls-1" d="M90.85,595.12c-17.16,0-31.07,20.63-31.07,42.51a94.12,94.12,0,0,0,62.14,0C121.92,615.75,108,595.12,90.85,595.12Z" transform="translate(-36.39 -542.17)"/><path class="cls-2" d="M144.37,596a61.57,61.57,0,0,0-10.35-.87c-15.57,0-29,5.69-35.58,14,.23.44.37.69.37.69H82.68l.17-.31C76.44,601,62.78,595.12,47,595.12a61.62,61.62,0,0,0-9.87.79c4.54,14.86,27,14,43.16,17.65a8.36,8.36,0,0,0-.26,2c0,2.46,1.2,10.24,10.85,10.24,9.45,0,10.64-7.78,10.64-10.24a8.31,8.31,0,0,0-.26-2C117.38,609.9,139.77,610.76,144.37,596Z" transform="translate(-36.39 -542.17)"/><path class="cls-3" d="M52.24,543.51s-2.07,4.4.45,23.58c1.19,9.1,4.93,10,4.93,10L69.25,566.5Z" transform="translate(-36.39 -542.17)"/><path class="cls-3" d="M129.25,543.51s2.07,4.4-.45,23.58c-1.19,9.1-4.93,10-4.93,10L112.24,566.5Z" transform="translate(-36.39 -542.17)"/><path class="cls-1" d="M135.08,578.59c-9.7-1.64-13.83-7.76-14.63-12.68-1.49-9.25,12.09-23.73,12.09-23.73s-12.54,0-24.18,10.9c-.38.35-8.68-2.21-17.14-2.2-8.77,0-17.7,2.56-18.09,2.2C61.49,542.17,49,542.17,49,542.17S62.53,556.65,61,565.9c-.79,4.93-4.93,11-14.63,12.68-1.84.31,5.11,3.2,5.65,5.16,0,0,10.41-11.27,23.16-6.65,10.3,3.73,12.1,10.57,12.39,15.52.45,7.76-4.93,17.17-4.93,17.17H98.81s-5.37-9.41-4.93-17.17c.29-5,2.09-11.79,12.39-15.52,12.75-4.62,23.15,6.65,23.16,6.65C130,581.78,136.91,578.9,135.08,578.59Z" transform="translate(-36.39 -542.17)"/><path class="cls-4" d="M82.85,609.47c.9-1.67,5.16-9.92,4.76-16.86-.29-5-2.09-11.79-12.39-15.52-12.75-4.62-23.16,6.65-23.16,6.65a.82.82,0,0,1,0,.36c-.39,2.12-8.06,1.79-10.75,2.24-1.09.18,7.31,4.78,4.33,5.52-7.38,1.85-9.55-1.87-9.25.75a18.32,18.32,0,0,0,.68,3.29,61.62,61.62,0,0,1,9.87-.79C62.78,595.12,76.44,601,82.85,609.47Z" transform="translate(-36.39 -542.17)"/><path class="cls-4" d="M134,595.12a61.57,61.57,0,0,1,10.35.87,18.44,18.44,0,0,0,.71-3.37c.3-2.62-1.87,1.1-9.25-.75-3-.75,5.42-5.34,4.33-5.52-2.68-.45-10.36-.12-10.75-2.24a.79.79,0,0,1,0-.36s-10.41-11.27-23.16-6.65c-10.3,3.73-12.1,10.57-12.39,15.52-.37,6.51,3.35,14.18,4.55,16.48C105,600.81,118.44,595.12,134,595.12Z" transform="translate(-36.39 -542.17)"/><path class="cls-2" d="M79.37,589.27a3.22,3.22,0,1,1-4.86-4.11A18.56,18.56,0,0,0,70,585s1.64,4.68,3.66,6.26c2.44,1.92,7.54,1.5,7.54,1.5S80.4,591,79.37,589.27Z" transform="translate(-36.39 -542.17)"/><path class="cls-5" d="M73.39,587.6a3.22,3.22,0,0,0,6,1.68,11.71,11.71,0,0,0-2.5-3.23,5.9,5.9,0,0,0-2.36-.88A3.21,3.21,0,0,0,73.39,587.6Z" transform="translate(-36.39 -542.17)"/><circle class="cls-2" cx="39.76" cy="45.89" r="0.81"/><polygon class="cls-5" points="62.42 67.61 46.3 67.61 54.46 74.54 62.42 67.61"/><path class="cls-2" d="M102.12,589.27a3.22,3.22,0,1,0,4.86-4.11,18.56,18.56,0,0,1,4.51-.16s-1.64,4.68-3.66,6.26c-2.44,1.92-7.54,1.5-7.54,1.5S101.09,591,102.12,589.27Z" transform="translate(-36.39 -542.17)"/><path class="cls-5" d="M108.1,587.6a3.22,3.22,0,0,1-6,1.68,11.66,11.66,0,0,1,2.51-3.23,5.91,5.91,0,0,1,2.36-.88A3.22,3.22,0,0,1,108.1,587.6Z" transform="translate(-36.39 -542.17)"/><circle class="cls-2" cx="68.95" cy="45.89" r="0.81"/><path class="cls-5" d="M73.24,575.73a13.82,13.82,0,1,0,13.82,13.82A13.82,13.82,0,0,0,73.24,575.73Zm0,26.08A12.26,12.26,0,1,1,85.5,589.55,12.27,12.27,0,0,1,73.24,601.81Z" transform="translate(-36.39 -542.17)"/><rect class="cls-5" x="18.07" y="45.42" width="5.89" height="2.69"/><rect class="cls-5" x="19.1" y="45.42" width="1.31" height="57.63"/><path class="cls-5" d="M103.51,615.37S105,618,101.86,618c-1.89,0-4.1-2.19-6.92-3-2.21-.6-3.63.13-4.14,1-.51-.88-1.93-1.61-4.14-1-2.81.76-5,3-6.92,3-3.16,0-1.66-2.62-1.66-2.62a2.18,2.18,0,0,0-1.46,2.85c1.64,5.69,13,2.81,14.18.15,1.17,2.66,12.54,5.54,14.18-.15A2.18,2.18,0,0,0,103.51,615.37Z" transform="translate(-36.39 -542.17)"/><rect class="cls-5" x="53.09" y="90.46" width="2.89" height="2.8"/><path class="cls-5" d="M92.95,632.63v2.8s3.82,2.76,5,2c1.53-.93,1.5-5.52,0-6.55C96.94,630.11,92.95,632.63,92.95,632.63Z" transform="translate(-36.39 -542.17)"/><path class="cls-5" d="M88.89,632.63v2.8s-3.82,2.76-5,2c-1.53-.93-1.5-5.52,0-6.55C84.9,630.11,88.89,632.63,88.89,632.63Z" transform="translate(-36.39 -542.17)"/></svg>
