<svg id="_ÎÓÈ_1" data-name="—ÎÓÈ 1" xmlns="http://www.w3.org/2000/svg" viewBox="0 0 83.48 115.94"><defs><style>.cls-1{fill:#f4c795;}.cls-2{fill:#cc9f65;}.cls-3{fill:#231f20;}.cls-4{fill:#fff;}</style></defs><path class="cls-1" d="M74.35,715.23c-4.56-2.44-7.89-6.08-12.82-13.16-2.6-3.73-8.21-2.51-10,.9-3.74,7.19.61,17.08,7.95,19.92a63.86,63.86,0,0,0,8.57,2.74S77,716.66,74.35,715.23Z" transform="translate(-49 -695.46)"/><path class="cls-1" d="M107.14,715.23c4.56-2.44,7.89-6.08,12.82-13.16,2.6-3.73,8.21-2.51,10,.9,3.74,7.19-.61,17.08-7.95,19.92a63.78,63.78,0,0,1-8.56,2.74S104.46,716.66,107.14,715.23Z" transform="translate(-49 -695.46)"/><ellipse class="cls-1" cx="41.74" cy="61.44" rx="41.74" ry="54.5"/><path class="cls-2" d="M112,721.88c-1.15-2.58-2.36-5.79-4.22-7.36-4-3.35-7.24-7.1-17-7.1s-13.06,3.75-17,7.1c-1.86,1.57-3.07,4.77-4.22,7.36-.88,2-2.56,3.28-2.46,4.75.07,1,2,3,2.33,3.91,1.83,4.73.77,11.72,3.73,19.58,6.68,17.74,17,17,17.65,16.92s11,.82,17.65-16.92c3-7.86,1.9-14.85,3.73-19.58.37-1,2.26-2.89,2.33-3.91C114.56,725.16,112.88,723.86,112,721.88Z" transform="translate(-49 -695.46)"/><path class="cls-2" d="M67.84,720.79a68.29,68.29,0,0,1-3.33-10.25c-.65-3-5.76-10.7-9.84-7.29-2.6,2.18-2,8.41.19,11.73A9.15,9.15,0,0,0,63,719.49,11.7,11.7,0,0,1,67.84,720.79Z" transform="translate(-49 -695.46)"/><path class="cls-3" d="M75.7,730.25c.16-.18-.84-2.51-2.27-4-.8-.86-2.85-1.75-4,0-.94,1.37.84,3.35,2.2,3.65a8.62,8.62,0,0,0,2.64-.17S75.43,730.54,75.7,730.25Z" transform="translate(-49 -695.46)"/><ellipse class="cls-4" cx="22.58" cy="31.99" rx="1.67" ry="1.59"/><ellipse class="cls-3" cx="22.58" cy="32.02" rx="0.72" ry="0.68"/><path class="cls-4" d="M103.06,758.48c.12-4.34-3.3-12.65-3.78-17-.5-4.51,2.66-11.77.55-18.17s-8.51-6.73-9.11-6.73a9.85,9.85,0,0,0-9.06,6.73c-2.1,6.4,1.05,13.65.55,18.17-.48,4.32-3.9,12.62-3.78,17,.45,16.28,11.4,17.19,12.28,17.24h.06C91.66,775.67,102.61,774.76,103.06,758.48Z" transform="translate(-49 -695.46)"/><path class="cls-3" d="M96.89,755.76c-.61-.1-.38,1.89-.79,2.35s-1.36.53-1.73.83-.86,1.4-1.32,1.66a7.9,7.9,0,0,1-4.62,0c-.46-.26-.9-1.33-1.31-1.66s-1.41-.47-1.73-.83-.18-2.45-.79-2.35c-.81.13-.4,2.55,0,3.27a12.38,12.38,0,0,0,1.34,1.4c.61.64,1.16,1.86,1.74,2.52a5,5,0,0,0,6.11,0c.58-.66,1.13-1.88,1.74-2.52a12.34,12.34,0,0,0,1.35-1.4C97.28,758.31,97.69,755.89,96.89,755.76Z" transform="translate(-49 -695.46)"/><path class="cls-2" d="M113.65,720.79A68.2,68.2,0,0,0,117,710.54c.65-3,5.77-10.7,9.84-7.29,2.6,2.18,2,8.41-.19,11.73a9.15,9.15,0,0,1-8.09,4.49A11.7,11.7,0,0,0,113.65,720.79Z" transform="translate(-49 -695.46)"/><path class="cls-3" d="M105.79,730.25c-.16-.18.84-2.51,2.27-4,.81-.86,2.85-1.75,4,0,.94,1.37-.84,3.35-2.2,3.65a8.62,8.62,0,0,1-2.64-.17S106.06,730.54,105.79,730.25Z" transform="translate(-49 -695.46)"/><ellipse class="cls-4" cx="60.91" cy="31.99" rx="1.68" ry="1.59"/><ellipse class="cls-3" cx="60.91" cy="32.02" rx="0.72" ry="0.68"/><path class="cls-3" d="M125.06,721.8c-2-.15-3.34-.95-4.85-1.06-4.06-.3-12.26-.59-16.28,0-2.08.31-6,2-8,2.42a80.21,80.21,0,0,1-10.32,0c-2.06-.4-6-2.12-8-2.42-4-.59-12.22-.3-16.28,0-1.51.11-2.8.91-4.85,1.06-1,.08-1.72,3.09-1.29,4,.28.62,1.29.66,1.67,1.23,2,3,1.51,10.78,5.3,13.35,4.42,3,13,2.18,16.43.23,5.3-3,6.37-8.58,8.91-13.38.32-.6,6.27-.6,6.59,0,2.54,4.8,3.61,10.35,8.91,13.38,3.42,2,12,2.78,16.43-.23,3.79-2.57,3.34-10.39,5.3-13.35.37-.57,1.39-.61,1.67-1.23C126.78,724.89,126.11,721.88,125.06,721.8Zm-65.38,3.25H56.8v-.94h2.88Zm16.89,14.77c-3.38,1.17-11.73,1.63-14.16-1-2.62-2.81-3-11.77-.53-14.73,1.84-2.22,8.6-2.86,11.45-2.46s9.77,1.29,10.67,5.15S81.76,738,76.57,739.83Zm42.51-1c-2.44,2.62-10.78,2.16-14.16,1-5.19-1.81-8.29-9.29-7.42-13s7.74-4.74,10.67-5.15,9.61.24,11.45,2.46C122.06,727.07,121.7,736,119.08,738.84Zm5.61-13.78h-2.88v-.94h2.88Z" transform="translate(-49 -695.46)"/><path class="cls-3" d="M89.05,769a17.11,17.11,0,0,1,6.4,6.69c-.49.59-.8,1.2-.61,1.55,3.71,6.88,1.57,16.43,6.67,21.31,1.29,1.23,4.83,1.9,7.06,1,2.62-1,6.54-5.33,6.36-7.95s-4.6-6.58-7.15-6.57c-1.74,0-5.17,6.31-5.23,4.58-.27-7.86-2-11.72-4.32-15.43-.21-.34-.77-.18-1.37.2a13.43,13.43,0,0,0-6.69-6.86C89.76,767.39,88.66,768.77,89.05,769ZM108,786.55c.35-.37,1.92.59,3.49,2.12s2.56,3.08,2.21,3.44-1.92-.59-3.49-2.12S107.63,786.91,108,786.55Z" transform="translate(-49 -695.46)"/><path class="cls-3" d="M109.71,764.34a6.27,6.27,0,0,1-5.44,3c-2.92,0-5.17-4.93-11-4.93a3.11,3.11,0,0,0-2.5,1.55,3.11,3.11,0,0,0-2.5-1.55c-5.86,0-8.11,4.93-11,4.93a6.27,6.27,0,0,1-5.44-3,6.6,6.6,0,0,0,4.85,6.15,9,9,0,0,0,4.24,0c.54-.09-2.75,1.67-2,1.85,3.81,1,8.46-.51,10.22-2.27a9.75,9.75,0,0,0,1.69-2.3,9.67,9.67,0,0,0,1.69,2.3c1.76,1.76,6.41,3.27,10.22,2.27.71-.18-2.58-1.94-2-1.85a9,9,0,0,0,4.24,0A6.6,6.6,0,0,0,109.71,764.34Z" transform="translate(-49 -695.46)"/><path class="cls-1" d="M91.15,704.36a3.36,3.36,0,1,1,3.06-4.75,5,5,0,1,0-1.33,4.26A3.32,3.32,0,0,1,91.15,704.36Z" transform="translate(-49 -695.46)"/><circle class="cls-1" cx="41.93" cy="7.59" r="3.46"/><path class="cls-1" d="M83.4,705.21a3.36,3.36,0,1,1,3.05-4.75,5,5,0,1,0-1.32,4.27A3.35,3.35,0,0,1,83.4,705.21Z" transform="translate(-49 -695.46)"/><circle class="cls-1" cx="34.17" cy="8.44" r="3.46"/><path class="cls-1" d="M98.72,705.21a3.36,3.36,0,1,1,3.05-4.75,5,5,0,1,0-1.32,4.27A3.35,3.35,0,0,1,98.72,705.21Z" transform="translate(-49 -695.46)"/><circle class="cls-1" cx="49.5" cy="8.44" r="3.46"/></svg>
