<svg id="_ÎÓÈ_1" data-name="—ÎÓÈ 1" xmlns="http://www.w3.org/2000/svg" viewBox="0 0 111.78 116.91"><defs><style>.cls-1{fill:#f15a29;}.cls-2{fill:#808285;}.cls-3{fill:#a7a9ac;}.cls-4{fill:#f1f2f2;}.cls-5{fill:#93250c;}.cls-6{fill:#fff;}.cls-7{fill:#414042;}.cls-8{fill:#231f20;}</style></defs><path class="cls-1" d="M650.7,478.22l30.37-23.56h49.27l32.13,25.29s-23,12.82-57.06,12.82S650.7,478.22,650.7,478.22Z" transform="translate(-650.7 -375.86)"/><path class="cls-2" d="M705.36,481h.49l23.95-26,.25-.08a46,46,0,0,0-23.24-6.71,50.48,50.48,0,0,0-25.27,7Z" transform="translate(-650.7 -375.86)"/><path class="cls-3" d="M691.24,423.61c0,10.59-3.46,13.4-15.51,13.4s-20.61-9.35-20.61-19.94,8.61-19.56,20.61-18.39C689.47,400,691.24,413,691.24,423.61Z" transform="translate(-650.7 -375.86)"/><path class="cls-3" d="M720.07,423.61c0,10.59,3.46,13.4,15.51,13.4s20.61-9.35,20.61-19.94-8.61-19.56-20.61-18.39C721.85,400,720.07,413,720.07,423.61Z" transform="translate(-650.7 -375.86)"/><path class="cls-2" d="M685.79,421.72c0,7.06-2.29,8.94-10.3,8.94a13.39,13.39,0,0,1-13.68-13.3,12.18,12.18,0,0,1,13.68-12.27C684.61,406,685.79,414.66,685.79,421.72Z" transform="translate(-650.7 -375.86)"/><path class="cls-2" d="M725.53,421.72c0,7.06,2.29,8.94,10.3,8.94a13.39,13.39,0,0,0,13.68-13.3,12.18,12.18,0,0,0-13.68-12.27C726.7,406,725.53,414.66,725.53,421.72Z" transform="translate(-650.7 -375.86)"/><path class="cls-3" d="M738.26,427.37c-3.34-27.8-25.58-28.69-32.61-28.69-8.29,0-29.26.89-32.6,28.69-.8,6.69,2.69,21,7.21,26,9.31,10.27,25.39,9.3,25.39,9.3s16.08,1,25.39-9.3C735.57,448.34,739.06,434.06,738.26,427.37Z" transform="translate(-650.7 -375.86)"/><path class="cls-4" d="M719.7,440.31l-9.9-7.14-4.14,12.28-3.54-12.28-10.5,7.14s-.4,7.45,6.22,8.28c.8.1-1.57,6,3,9.61a8.83,8.83,0,0,0,9.55,0c4.62-3.65,2.25-9.51,3-9.61C720.1,447.75,719.7,440.31,719.7,440.31Z" transform="translate(-650.7 -375.86)"/><path class="cls-5" d="M719.5,467.2c-6.62,9.53-13.79,13.1-13.79,13.1a49.36,49.36,0,0,1-14.1-13.83c-.71-1-.15,5.2.38,6.33,3.73,8,13.72,11.39,13.72,11.39s10-3.39,13.72-11.39C720,471.67,720.21,466.17,719.5,467.2Z" transform="translate(-650.7 -375.86)"/><path class="cls-6" d="M730.41,454s-1.12,8.86-2.27,11.73a57.91,57.91,0,0,1-3.85,8.26c-.94,1.49.39,3.25-.47,4.33-.63.79-3.63-3-4.27-4.64-.45-1.17.15-6.68-.47-5.6-4.39,7.72-13.37,12.21-13.37,12.21s12.73-14.29,17.16-18.89C724.68,459.53,730.41,454,730.41,454Z" transform="translate(-650.7 -375.86)"/><path class="cls-6" d="M681,454.1s1.13,8.77,2.29,11.64a57.84,57.84,0,0,0,3.86,8.26c.94,1.49-.39,3.25.47,4.33.63.79,3.63-3,4.27-4.64.45-1.17-.15-6.68.47-5.6,4.39,7.72,13.37,12.21,13.37,12.21S693,466,688.55,461.42C686.74,459.53,681,454.1,681,454.1Z" transform="translate(-650.7 -375.86)"/><path class="cls-7" d="M711,433.17c-1.21-6.41-5.34-7.18-5.34-7.18s-4.13.77-5.33,7.18c-.49,2.63-.32,8.18.6,10.7a5,5,0,0,0,2.34,2.87,13.64,13.64,0,0,0,4.79,0,5,5,0,0,0,2.34-2.87C711.32,441.36,711.49,435.8,711,433.17Z" transform="translate(-650.7 -375.86)"/><path class="cls-8" d="M742.79,418.89H668.52s0,3.74.6,4.73c.45.7,1.87.73,2.44,1.34,2.16,2.32-.16,7.56,4.23,12.47,3.47,3.89,11.49,5.32,17.41,3.08,9.28-3.5,7.73-10.39,10.55-13.41a7.89,7.89,0,0,1,3.81,0c2.82,3,1.27,9.91,10.55,13.41,5.92,2.24,13.94.81,17.41-3.08,4.39-4.91,2.07-10.15,4.23-12.47.56-.61,2-.64,2.43-1.34C742.84,422.63,742.79,418.89,742.79,418.89Zm-42.6,11.34c-.65,6.39-8.51,9.5-12.37,9.5-8.48,0-11.55-4.52-12.9-8.16-.9-2.44-.87-10.38-.87-10.38h21.75C699.67,421.18,700.71,425.18,700.19,430.23Zm36.2,1.33c-1.35,3.65-4.41,8.16-12.9,8.16-3.87,0-11.73-3.11-12.37-9.5-.51-5,.52-9,4.38-9h21.76S737.29,429.12,736.39,431.56Z" transform="translate(-650.7 -375.86)"/><path class="cls-8" d="M720.32,445.36c-2.82.52-2.17,3.63-2.17,3.63a4.36,4.36,0,0,1,2.17-2c1.2-.39,2.37,1.15,2.42,1.9.15,2-1.35,4.4-6.11,4-3.47-.33-3.39-6.86-5.53-8.46s-4.8-1.1-5.46,1.1c-.66-2.2-3.35-2.68-5.46-1.1s-2.06,8.14-5.53,8.46c-4.76.44-6.26-1.92-6.11-4,.05-.75,1.22-2.3,2.42-1.9a4.38,4.38,0,0,1,2.17,2s.65-3.11-2.17-3.63a3.68,3.68,0,0,0-4.53,3.83c0,5.81,4.31,7,8.32,7,5.34,0,9.29-4.59,10.88-7.57,1.59,3,5.54,7.57,10.88,7.57,4,0,8.33-1.2,8.33-7A3.68,3.68,0,0,0,720.32,445.36Z" transform="translate(-650.7 -375.86)"/><path class="cls-4" d="M697.83,427.41c-.58,1.4-3.57,2.2-6.42,1.59s-4-2.86-3.65-4.34,2.64-1.7,5.53-1.28S698.63,425.46,697.83,427.41Z" transform="translate(-650.7 -375.86)"/><path class="cls-4" d="M713.46,427.41c.57,1.4,3.57,2.2,6.42,1.59s4-2.86,3.65-4.34-2.64-1.7-5.53-1.28S712.66,425.46,713.46,427.41Z" transform="translate(-650.7 -375.86)"/><path class="cls-8" d="M688.7,424.5s.84-.79,4.24-.24c1.37.22,4.84,1.68,4.4,2.57-.16.33-1.27-.31-1.47,0a3.74,3.74,0,0,1-4,1.47C688.25,427.42,688.7,424.5,688.7,424.5Z" transform="translate(-650.7 -375.86)"/><circle class="cls-6" cx="40.43" cy="49.6" r="0.69"/><path class="cls-8" d="M722.61,424.5s-.84-.79-4.24-.24c-1.37.22-4.84,1.68-4.39,2.57.16.33,1.27-.31,1.46,0a3.74,3.74,0,0,0,4,1.47C723.06,427.42,722.61,424.5,722.61,424.5Z" transform="translate(-650.7 -375.86)"/><circle class="cls-6" cx="69.49" cy="49.6" r="0.69"/><ellipse class="cls-8" cx="54.71" cy="25.08" rx="18.17" ry="5.6"/><path class="cls-8" d="M715.52,394.39c-.1-10.29-2.63-18.53-5.73-18.53-1.63,0-3.11,2.29-4.15,6-1-3.67-2.52-6-4.15-6-3.1,0-5.63,8.23-5.73,18.52a55.51,55.51,0,0,0,19.77,0Z" transform="translate(-650.7 -375.86)"/><path class="cls-8" d="M696,400.59c.05.59.12,1.17.19,1.74H715.1c.07-.56.13-1.14.19-1.73a55.86,55.86,0,0,1-19.29,0Z" transform="translate(-650.7 -375.86)"/><path class="cls-1" d="M715.52,394.39a55.51,55.51,0,0,1-19.77,0c0,.22,0,.45,0,.67,0,1.92.08,3.78.24,5.54a55.86,55.86,0,0,0,19.29,0c.16-1.76.24-3.62.24-5.54C715.53,394.83,715.53,394.61,715.52,394.39Z" transform="translate(-650.7 -375.86)"/></svg>
