<svg id="_ÎÓÈ_1" data-name="—ÎÓÈ 1" xmlns="http://www.w3.org/2000/svg" viewBox="0 0 94.73 135.22"><defs><style>.cls-1{fill:#231f20;}.cls-2{fill:#c3000a;}.cls-3{fill:#f15a29;}.cls-4{fill:#93250c;}.cls-5{fill:#fff;}</style></defs><path class="cls-1" d="M250.76,539.47c-9.88-1.37-15,.69-17.21,2.15l-.5-10s3.52-6.87,18.29-5.25c16.52,1.82,18.45,9.76,18.45,9.76l-3.15,9.67C264.74,543.67,260.43,540.81,250.76,539.47Z" transform="translate(-198.2 -526.08)"/><path class="cls-2" d="M233.84,547.56l-.3-5.95c2.25-1.46,7.33-3.52,17.21-2.15,9.67,1.34,14,4.2,15.88,6.29l-2.09,6.41Z" transform="translate(-198.2 -526.08)"/><ellipse class="cls-1" cx="246.51" cy="558.62" rx="14.4" ry="27.77" transform="translate(-544.75 177.8) rotate(-79.95)"/><circle class="cls-3" cx="76.5" cy="35.75" r="7.47"/><circle class="cls-4" cx="76.39" cy="35.92" r="4.11"/><circle class="cls-3" cx="18.05" cy="35.75" r="7.46"/><circle class="cls-4" cx="18.16" cy="35.92" r="4.11"/><ellipse class="cls-3" cx="47.36" cy="79.49" rx="47.36" ry="55.73"/><circle class="cls-4" cx="47.17" cy="58.9" r="23.15"/><ellipse class="cls-3" cx="35.08" cy="52.08" rx="6.1" ry="5.22"/><ellipse class="cls-3" cx="58.97" cy="52.08" rx="6.1" ry="5.22"/><polygon class="cls-5" points="58.08 72.36 36.27 72.36 47.06 39.28 58.08 72.36"/><circle class="cls-5" cx="47.17" cy="82.29" r="15.08"/><path class="cls-1" d="M234.58,599.14s7.51,8.14,10.9,8.12,10.67-8.12,10.67-8.12Z" transform="translate(-198.2 -526.08)"/><path class="cls-1" d="M253.53,579.54c-.18-.42.59-2.78,3-3.56,2.14-.69,4.12.24,4.28,1.29.11.73,0,1.6-2.32,2.45C257,580.26,253.83,580.23,253.53,579.54Z" transform="translate(-198.2 -526.08)"/><circle class="cls-5" cx="60.08" cy="51.57" r="0.74"/><path class="cls-1" d="M236.72,579.54c.18-.42-.59-2.78-3-3.56-2.14-.69-4.12.24-4.28,1.29-.11.73,0,1.6,2.32,2.45C233.25,580.26,236.42,580.23,236.72,579.54Z" transform="translate(-198.2 -526.08)"/><circle class="cls-5" cx="33.77" cy="51.57" r="0.74"/><path class="cls-1" d="M262,606.26s2,3.42-2.19,3.46c-2.5,0-5.43-2.89-9.15-3.9-2.66-.72-4.45,0-5.26,1-.81-1-2.61-1.75-5.26-1-3.72,1-6.65,3.92-9.15,3.9-4.18,0-2.19-3.46-2.19-3.46a3.13,3.13,0,0,0-1.93,3.77c.21,1.09,2.44,5.11,7.92,3.71.37-.09-1.46,1.2-1.08,1.26,4.6.69,10-1.11,11.69-4.3,1.69,3.19,7.09,5,11.69,4.3.38-.06-1.45-1.35-1.08-1.26,5.48,1.4,7.71-2.62,7.92-3.71A3.13,3.13,0,0,0,262,606.26Z" transform="translate(-198.2 -526.08)"/><path class="cls-1" d="M243.84,635a44,44,0,0,0-3.66-3.09c-1.62-1-5.19-2.74-6.73-1.64-2.93,2.09-3,10.69,0,12.7,1.5,1,5.14-1,6.71-1.87a43.73,43.73,0,0,0,3.69-2.86Z" transform="translate(-198.2 -526.08)"/><path class="cls-1" d="M246.91,635a44,44,0,0,1,3.66-3.09c1.62-1,5.19-2.74,6.73-1.64,2.93,2.09,3,10.69,0,12.7-1.5,1-5.14-1-6.7-1.87a43.73,43.73,0,0,1-3.69-2.86Z" transform="translate(-198.2 -526.08)"/><rect class="cls-1" x="45.21" y="108.92" width="3.92" height="3.24"/></svg>
