<svg id="_ÎÓÈ_1" data-name="—ÎÓÈ 1" xmlns="http://www.w3.org/2000/svg" viewBox="0 0 84.64 116.56"><defs><style>.cls-1{fill:#752b13;}.cls-2{fill:#f25a29;}.cls-3{fill:#c49a6c;}.cls-4{fill:#fff;}.cls-5{fill:#231f20;}</style></defs><path class="cls-1" d="M282.7,798.89q-1-2.45-2.14-4.74-1-2-2.22-3.92c-.58-.93-1.18-1.84-1.81-2.71-9.15-10.68-18.74-15.46-31.49-15.46s-19.19,2.39-30.28,15.47c-.69,1-1.35,2-2,3s-1.39,2.37-2,3.61q-1.17,2.29-2.15,4.74t-1.79,5.27c10.63,4.75,24.16,7.6,38.88,7.6s28.15-2.83,38.77-7.55C284,802.36,283.37,800.6,282.7,798.89Z" transform="translate(-203.24 -695.16)"/><ellipse class="cls-2" cx="253.61" cy="718.56" rx="10.38" ry="30.33" transform="translate(-700.46 153.45) rotate(-80.39)"/><path class="cls-2" d="M272.61,710.23c-1.38-5.59-3.75-11.94-7.44-12.57-1.78-.3-5.33,1.53-7.11,1.26-2-.3-5.33-3.37-7.36-3.71-3.65-.62-8.25,4.42-11.69,9.15a61.25,61.25,0,0,1,16.9.67A60.31,60.31,0,0,1,272.61,710.23Z" transform="translate(-203.24 -695.16)"/><ellipse class="cls-1" cx="278.45" cy="746.17" rx="13.7" ry="9.24" transform="translate(-710.06 183.87) rotate(-79.14)"/><ellipse class="cls-3" cx="277.66" cy="746.17" rx="8.36" ry="5.64" transform="translate(-710.71 183.08) rotate(-79.14)"/><ellipse class="cls-1" cx="212.67" cy="746.17" rx="9.23" ry="13.7" transform="translate(-340.04 -641.71) rotate(-10.86)"/><ellipse class="cls-3" cx="213.47" cy="746.17" rx="5.64" ry="8.36" transform="translate(-340.02 -641.56) rotate(-10.86)"/><path class="cls-1" d="M278.3,736.77c0-19.9-16.61-23.82-32.52-23.82-14.09,0-32.52,3.91-32.52,23.82,0,14.56,2.43,36.28,17.77,48.55,4.61,3.69,10.8,4.25,13.81,4.38h0s.34,0,.94,0,.94,0,.94,0h0c3-.13,9.14-.76,13.81-4.38C276.34,773,278.3,748.8,278.3,736.77Z" transform="translate(-203.24 -695.16)"/><circle class="cls-3" cx="30.49" cy="45.32" r="17.15"/><circle class="cls-3" cx="54.1" cy="45.32" r="17.15"/><circle class="cls-4" cx="29.36" cy="43.17" r="7.02"/><ellipse class="cls-3" cx="42.41" cy="72.39" rx="19.8" ry="18.46"/><path class="cls-5" d="M245,785.69s-7.15-7.32-9.29-4.73c-1.56,1.89.15,4-.07,5.29-.17,1-1.39,2-1.19,3.78.13,1.13,1.15,2.7,4.21,2.07,3.28-.67,6.28-4.25,6.28-4.25Z" transform="translate(-203.24 -695.16)"/><path class="cls-5" d="M246.53,785.69s7.15-7.32,9.29-4.73c1.56,1.89-.15,4,.07,5.29.17,1,1.39,2,1.18,3.78-.13,1.13-1.15,2.7-4.21,2.07-3.28-.67-6.28-4.25-6.28-4.25Z" transform="translate(-203.24 -695.16)"/><path class="cls-5" d="M247.56,787a1.56,1.56,0,0,1-1.56,1.56h-.51a1.56,1.56,0,0,1-1.56-1.56h0a1.56,1.56,0,0,1,1.56-1.56H246a1.56,1.56,0,0,1,1.56,1.56Z" transform="translate(-203.24 -695.16)"/><path class="cls-5" d="M255.9,705a61.25,61.25,0,0,0-16.9-.67c-.79,1.09-1.52,2.16-2.17,3.14a66.31,66.31,0,0,1,18.51.83,65.44,65.44,0,0,1,18.05,5.47c-.21-1.1-.48-2.31-.78-3.57A60.31,60.31,0,0,0,255.9,705Z" transform="translate(-203.24 -695.16)"/><circle class="cls-5" cx="29.63" cy="43.41" r="3.13"/><path class="cls-1" d="M246.67,743.77a12.76,12.76,0,0,0-2,0c-3.07.32-8.23,2.26-7.26,5.84.73,2.72,4,1.21,4.83,2.22,1.14,1.35,1.48,4.35,2,6,.11.35.32,1.65,1.43,1.65s1.32-1.3,1.43-1.65c.54-1.68.88-4.68,2-6,.86-1,4.1.49,4.83-2.22C254.9,746,249.74,744.08,246.67,743.77Z" transform="translate(-203.24 -695.16)"/><ellipse class="cls-5" cx="240.65" cy="752.46" rx="2.1" ry="3.27" transform="translate(-617.24 -384.9) rotate(-38.23)"/><ellipse class="cls-5" cx="250.75" cy="752.46" rx="3.27" ry="2.1" transform="translate(-698.76 -211.31) rotate(-51.77)"/><circle class="cls-4" cx="30.23" cy="42.85" r="0.98"/><circle class="cls-4" cx="55.61" cy="43.17" r="7.02"/><circle class="cls-5" cx="55.87" cy="43.41" r="3.13"/><circle class="cls-4" cx="56.47" cy="42.85" r="0.98"/><path class="cls-5" d="M279.46,731c-9-.52-16.7-.5-22.06-.44-3.81,0-6,2.23-6.72,4.51H240.61c-.71-2.28-2.91-4.47-6.72-4.51-5.36-.06-13.09-.08-22.06.44-.84,0-1.38,1.89-.95,3.35.18.59,1.53.87,1.53,2s-2.33,15.21,14.78,15.21c8.88,0,12.43-4.52,13.22-10.27,0,0,.24-2.23,1.27-2.58a25.19,25.19,0,0,1,7.92,0c1,.34,1.28,2.58,1.28,2.58.79,5.74,4.34,10.27,13.22,10.27,17.11,0,14.78-14.12,14.78-15.21s1.35-1.37,1.53-2C280.85,732.86,280.31,731,279.46,731ZM227.23,749.9c-13.9,0-13.5-12.16-11.62-16,.77-1.58,6.21-1.72,11.48-1.73,4.73,0,9.17-.12,10.44,2C239.89,738.08,239.89,749.9,227.23,749.9Zm36.83-.05c-12.58,0-12.58-11.75-10.24-15.67,1.26-2.11,5.67-2,10.38-2,5.23,0,10.64.15,11.41,1.72C277.48,737.76,277.87,749.85,264.06,749.85Z" transform="translate(-203.24 -695.16)"/><path class="cls-5" d="M261.88,758.7c-.84-1.26-2.89,0-2.89,0a1,1,0,0,1,1.35.53,1.1,1.1,0,0,1-.53,1.43c-1.82.59-3.91-4.25-6.38-4.25-1.87,0-2.9,1.89-3.93,2.39s-3.16-.26-3.71-.39h0c-.56.13-2.8.83-3.71.39s-2.06-2.39-3.93-2.39c-2.47,0-4.55,4.84-6.38,4.25a1.1,1.1,0,0,1-.53-1.43,1,1,0,0,1,1.35-.53s-2-1.26-2.89,0c-1.24,1.85.08,3.93,2.89,3.93,2.13,0,4-2.71,5.73-2.71,1.91,0,2.91,1.7,4.29,1.7a4.6,4.6,0,0,0,3.18-1.71,4.59,4.59,0,0,0,3.18,1.71c1.38,0,2.38-1.7,4.29-1.7,1.69,0,3.6,2.71,5.73,2.71C261.8,762.63,263.11,760.54,261.88,758.7Z" transform="translate(-203.24 -695.16)"/></svg>
