<svg id="_ÎÓÈ_1" data-name="—ÎÓÈ 1" xmlns="http://www.w3.org/2000/svg" viewBox="0 0 85.88 118.37"><defs><style>.cls-1{fill:#231f20;}.cls-2{fill:#58595b;}.cls-3{fill:#a9a9ad;}.cls-4{fill:#fff200;}</style></defs><path class="cls-1" d="M743.78,542.08s.59,4.72.14,6.21c-.21.67-1.58,1.49-1.76,2.16-.29,1.17,0,3.57-.34,4.73-.56,2.09-2.87,4.75-4,6.61a46.44,46.44,0,0,0-2.16,5.54L733,562.6s.67-11.47,1.15-11.88S743.78,542.08,743.78,542.08Z" transform="translate(-663.65 -534.51)"/><path class="cls-1" d="M668.83,542.08s-.59,4.72-.14,6.21c.2.67,1.58,1.49,1.75,2.16.3,1.17,0,3.57.34,4.73.56,2.09,2.87,4.75,4,6.61a46.45,46.45,0,0,1,2.16,5.54l2.7-4.72s-.67-11.47-1.15-11.88S668.83,542.08,668.83,542.08Z" transform="translate(-663.65 -534.51)"/><path class="cls-2" d="M724.47,556.79s3.88-2.34,4.59-3.64c.55-1,1.08-4,1.62-5,1.85-3.51,13.09-6.08,13.09-6.08a40.77,40.77,0,0,1-1.89,4.32c-1.21,1.92-5.24,4.72-5.94,6.88-.35,1.1.3,3.48,0,4.59-.38,1.4-3,4.73-3,4.73Z" transform="translate(-663.65 -534.51)"/><path class="cls-2" d="M688.14,556.79s-3.88-2.34-4.59-3.64c-.55-1-1.09-4-1.62-5-1.85-3.51-13.09-6.08-13.09-6.08a41,41,0,0,0,1.89,4.32c1.21,1.92,5.24,4.72,5.94,6.88.35,1.1-.3,3.48,0,4.59.38,1.4,3,4.73,3,4.73Z" transform="translate(-663.65 -534.51)"/><path class="cls-2" d="M749.39,594.42c-1.73-1.36-3.42-6.64-4.05-8.81a104.51,104.51,0,0,0-5.67-16.45c-7.67-18.19-25.57-18.7-33.29-18v.17c-7.92-.65-25.34.16-32.88,18a104.68,104.68,0,0,0-5.67,16.45c-.63,2.16-2.32,7.45-4.05,8.81-.85.67,2.71.36,4.52-1.49,2.85-2.91-2.48,12.67-3.87,14.69-.92,1.35,3.73-.28,5.38-2.52,2.64-3.58-2.18,11.83-3.62,13.69-1.21,1.57,4.14-.29,7.31-4.91,1.09-1.59.32,6-2.92,12.54,0,3.91,10.33-5.66,10.54-5.74.86,3.67-2.51,14.33-3.29,15.78-.29.54.56,3.23,11.49-4.57,1.44,2-3,14.86-.5,15.24,1.51.64,6.59-2,11.89-6.54,2,5.29,5,12.09,6.68,12.09,1.88,0,4.53-7,6.26-12.34,3.13,3.15,6.94,6.42,10.69,6.59,2.49-.38-1.94-13.27-.5-15.23,10.93,7.8,11.78,5.11,11.49,4.57-.78-1.45-4.16-12.11-3.29-15.78.21.08,10.55,9.65,10.55,5.74-3.24-6.58-4-14.13-2.92-12.54,3.17,4.62,8.52,6.48,7.31,4.91-1.43-1.86-6.25-17.27-3.62-13.69,1.65,2.24,6.3,3.88,5.38,2.52-1.38-2-6.72-17.6-3.87-14.69C746.68,594.78,750.24,595.09,749.39,594.42Z" transform="translate(-663.65 -534.51)"/><path class="cls-3" d="M706.61,594.93c-13.92,0-25.61,12.26-28.84,28.81,1.83-1.47,3.3-2.81,3.38-2.84.86,3.67-2.51,14.33-3.29,15.78-.29.54.56,3.23,11.49-4.57,1.44,2-3,14.86-.5,15.24,1.5.64,6.59-2,11.89-6.54,2,5.29,5,12.09,6.68,12.09,1.88,0,4.53-7,6.26-12.34,3.13,3.15,6.94,6.42,10.69,6.59,2.49-.38-1.94-13.27-.5-15.23,10.93,7.8,11.78,5.11,11.49,4.57-.78-1.45-4.16-12.11-3.29-15.78.08,0,1.53,1.35,3.33,2.81C732.1,607.07,720.46,594.93,706.61,594.93Z" transform="translate(-663.65 -534.51)"/><path class="cls-3" d="M732.14,568.64c-.42-4.67-7.64-3.68-8.21-4.73-.93-1.73,4.73-4.16,3.6-5.29-1.47-1.47-7.88-.16-12.65,4.16-4.4,4-7.55,10.3-8.29,11.87-.74-1.57-3.89-7.88-8.29-11.87-4.77-4.32-11.18-5.63-12.65-4.16-1.13,1.13,4.54,3.56,3.6,5.29-.57,1.05-7.79.06-8.21,4.73-.29,3.22,2.58,10.13,8.45,10.13,6.54,0,7.08-4.85,8.23-3.88,1.71,1.43-4.21,3.67-3.93,5.8.56,4.2,12.5,9.12,12.5,9.12h.59s11.94-4.92,12.5-9.12c.29-2.13-5.64-4.37-3.93-5.8,1.16-1,1.69,3.88,8.23,3.88C729.56,578.76,732.42,571.86,732.14,568.64Z" transform="translate(-663.65 -534.51)"/><path class="cls-4" d="M715.43,571.64s.84-3.92,6.36-5.13a8.18,8.18,0,0,1,6.2.81s2.09,7.53-3.4,9.27C717.63,578.79,715.43,571.64,715.43,571.64Z" transform="translate(-663.65 -534.51)"/><circle class="cls-1" cx="58.72" cy="36.7" r="2.58"/><polygon class="cls-4" points="59.47 32.88 58.72 36.7 61.79 34.12 59.47 32.88"/><path class="cls-4" d="M697.18,571.64s-.84-3.92-6.36-5.13a8.18,8.18,0,0,0-6.2.81s-2.09,7.53,3.4,9.27C695,578.79,697.18,571.64,697.18,571.64Z" transform="translate(-663.65 -534.51)"/><circle class="cls-1" cx="26.6" cy="36.7" r="2.58"/><polygon class="cls-4" points="25.85 32.88 26.6 36.7 23.52 34.12 25.85 32.88"/><polygon class="cls-1" points="42.94 45.46 46.79 51.38 42.94 58.42 39.09 51.38 42.94 45.46"/><path class="cls-1" d="M743.36,568.47h-3a15.62,15.62,0,0,0-29.92-2h-7.61a15.62,15.62,0,0,0-29.92,2h-3a1.21,1.21,0,0,0-1.21,1.21v3.72a1.21,1.21,0,0,0,1.21,1.21h2.93a15.62,15.62,0,0,0,31-2.76,15.83,15.83,0,0,0-.09-1.7h5.91a15.62,15.62,0,0,0,30.9,4.46h2.92a1.21,1.21,0,0,0,1.21-1.21v-3.72A1.21,1.21,0,0,0,743.36,568.47Zm-72.79,2.72a.87.87,0,1,1,.87-.87A.87.87,0,0,1,670.57,571.19Zm17.53,13.46a12.79,12.79,0,1,1,12.79-12.79A12.79,12.79,0,0,1,688.1,584.64Zm37,0a12.79,12.79,0,1,1,12.79-12.79A12.79,12.79,0,0,1,725.07,584.64Zm17.54-13.46a.87.87,0,1,1,.87-.87A.87.87,0,0,1,742.6,571.19Z" transform="translate(-663.65 -534.51)"/><path class="cls-1" d="M713.53,534.51H699.64a5.74,5.74,0,0,0-5.74,5.74v9.52a38.47,38.47,0,0,0,13,2.1A39.3,39.3,0,0,0,719.27,550v-9.76A5.74,5.74,0,0,0,713.53,534.51Z" transform="translate(-663.65 -534.51)"/><path class="cls-1" d="M725.73,550.45c0,2.16-8.57,8.17-19.15,8.17s-19.15-6-19.15-8.17,8.57,2.5,19.15,2.5S725.73,548.29,725.73,550.45Z" transform="translate(-663.65 -534.51)"/><path class="cls-4" d="M706.94,551.87a38.47,38.47,0,0,1-13-2.1v.68c0,1.49,2.68,5.45,13,5.45,9.36,0,12.33-3.83,12.33-5.45V550A39.3,39.3,0,0,1,706.94,551.87Z" transform="translate(-663.65 -534.51)"/><path class="cls-1" d="M714.61,599.92c-1.34-.69-4.49,1.84-6.13,3.28a2.22,2.22,0,0,0-3.65.13c-1.59-1.42-4.89-4.11-6.27-3.41-1.89,1-2.47,7.2-.77,8.48,1.33,1,5.5-1.55,7.1-2.59a2.21,2.21,0,0,0,3.53.1c1.7,1.1,5.66,3.46,6.95,2.49C717.08,607.12,716.5,600.89,714.61,599.92Z" transform="translate(-663.65 -534.51)"/></svg>
