<svg id="_ÎÓÈ_1" data-name="—ÎÓÈ 1" xmlns="http://www.w3.org/2000/svg" viewBox="0 0 84.17 100.66"><defs><style>.cls-1{fill:#231f20;}.cls-2{fill:#fff;}.cls-3{fill:#414042;}.cls-4{fill:#024942;}.cls-5{fill:#00a79d;}</style></defs><path class="cls-1" d="M436,608.63V606.9c0-11.94-2-20.81-5.15-27.41l-3.78-7.4,1.35-.73h-2.85c-11.6-13.21-28.76-10.27-29-10.27s-17.38-2.94-29,10.27h-1L363,578.26c-3.47,6.71-5.76,15.94-5.76,28.64v4l-2.5,28.48A210.47,210.47,0,0,0,396.61,644a193.63,193.63,0,0,0,42.28-4.69Z" transform="translate(-354.72 -543.37)"/><path class="cls-2" d="M396.62,555.52h0c-.61,0-34.74,1.18-33.52,40.62,1,31,33.22,30.13,33.53,30.12s32.57.84,33.52-30.12C431.34,556.7,397.23,555.54,396.62,555.52Z" transform="translate(-354.72 -543.37)"/><path class="cls-1" d="M402.57,586.91c.87-2.9,3.08-6,5.93-4.78,4.23,1.81,7.69,8.76,9.14,12.35,1.79,4.41-.67,7.35-5,8-3.45.53-7.53-1.71-9.59-6.77A13.36,13.36,0,0,1,402.57,586.91Z" transform="translate(-354.72 -543.37)"/><path class="cls-2" d="M410.88,588.4c-.16-1-1.21-1.8-3.2-1.78-2.32,0-3.35,1.55-3.21,2.63s2.79,2.56,3.91,2.35A3,3,0,0,0,410.88,588.4Z" transform="translate(-354.72 -543.37)"/><ellipse class="cls-1" cx="53.24" cy="45.56" rx="1.42" ry="1.39"/><circle class="cls-2" cx="53.2" cy="45.42" r="0.33"/><path class="cls-1" d="M404.61,612.2c-2,0-3.14-2.31-5.32-2.31a3.78,3.78,0,0,0-2.68.82,3.78,3.78,0,0,0-2.68-.82c-2.18,0-3.34,2.31-5.32,2.31-3.27,0-4.36-2-4.36-2s.61,6,7.36,6a6,6,0,0,0,5-2.38,6,6,0,0,0,5,2.38c6.75,0,7.36-6,7.36-6S407.88,612.2,404.61,612.2Z" transform="translate(-354.72 -543.37)"/><path class="cls-1" d="M382.07,560.72c1.6-4.3-2.44-14.89-12.31-11.93s-13,17.33-9.13,22.59c2.42,3.27,8.24,3,10.63,1.31s4-3.92,5.45-5.59S381.07,563.41,382.07,560.72Z" transform="translate(-354.72 -543.37)"/><path class="cls-1" d="M411.14,560.72c-1.6-4.3,2.44-14.89,12.31-11.93s13,17.33,9.13,22.59c-2.42,3.27-8.24,3-10.63,1.31s-4-3.92-5.45-5.59S412.14,563.41,411.14,560.72Z" transform="translate(-354.72 -543.37)"/><path class="cls-3" d="M417.56,560.79c-.77-2.07,1.17-7.16,5.92-5.74s6.27,8.34,4.39,10.87c-1.17,1.57-4,1.44-5.11.63a15.84,15.84,0,0,1-2.62-2.69C419.36,563,418,562.08,417.56,560.79Z" transform="translate(-354.72 -543.37)"/><path class="cls-3" d="M375.65,560.79c.77-2.07-1.17-7.16-5.92-5.74s-6.27,8.34-4.39,10.87c1.16,1.57,4,1.44,5.11.63a15.82,15.82,0,0,0,2.62-2.69C373.85,563,375.17,562.08,375.65,560.79Z" transform="translate(-354.72 -543.37)"/><path class="cls-1" d="M404.18,605.56c.06-2.65-7.42-1.45-7.58-1.45s-7.65-1.2-7.58,1.45c.11,4.56,7.27,5.28,7.57,5.31h0C396.92,610.84,404.07,610.12,404.18,605.56Z" transform="translate(-354.72 -543.37)"/><path class="cls-1" d="M390.54,586.91c-.87-2.9-3.08-6-5.93-4.78-4.23,1.81-7.69,8.76-9.14,12.35-1.79,4.41.67,7.35,5,8,3.45.53,7.53-1.71,9.6-6.77A13.36,13.36,0,0,0,390.54,586.91Z" transform="translate(-354.72 -543.37)"/><path class="cls-2" d="M382.23,588.4c.16-1,1.21-1.8,3.2-1.78,2.32,0,3.35,1.55,3.21,2.63s-2.79,2.56-3.92,2.35A3,3,0,0,1,382.23,588.4Z" transform="translate(-354.72 -543.37)"/><ellipse class="cls-1" cx="30.43" cy="45.56" rx="1.42" ry="1.39"/><circle class="cls-2" cx="30.47" cy="45.42" r="0.33"/><path class="cls-4" d="M383,560.37c1.18,3.15,10.12,2.3,13.44,1.77,3-.47,11.07-2.32,10.45-6a2.81,2.81,0,0,0-1.7-2.37c.29,1.56.44,2.66.44,2.66a25.88,25.88,0,0,1-9.36,3.44,41.84,41.84,0,0,1-12.28,0s-.14-.74-.3-1.88A2.37,2.37,0,0,0,383,560.37Z" transform="translate(-354.72 -543.37)"/><path class="cls-5" d="M413.32,557.16c-.38-2.3-2.87-3.16-5.2-3.46a19.66,19.66,0,0,0-3-.13c-.05-.27-.11-.55-.17-.84-.68-3.33-1.88-7.84-3.55-9a3.77,3.77,0,0,0-1.73-.3c-1.31,0-2.74.16-2.14.3,1.46.34,2,1.92,1.46,1.72-2.75-1-4.51-1.74-6.1-1.72-.45,0-1,0-1.6.12-2.58.3-6.21,1.18-7.33,2.72-.83,1.13-1,3.66-.84,6.22.08,1.77.29,3.55.48,4.9a8.29,8.29,0,0,0-1.51.7,3.44,3.44,0,0,0-1.91,2.86c0,6.61,12.37,6.87,17,6.27C402.05,566.83,414.51,564.28,413.32,557.16Zm-16.88,5c-3.32.53-12.26,1.38-13.44-1.77a2.37,2.37,0,0,1,.68-2.35c.17,1.14.3,1.88.3,1.88a41.84,41.84,0,0,0,12.28,0,25.88,25.88,0,0,0,9.36-3.44s-.15-1.1-.44-2.66a2.81,2.81,0,0,1,1.7,2.37C407.51,559.82,399.4,561.66,396.44,562.14Z" transform="translate(-354.72 -543.37)"/><path class="cls-5" d="M406.22,629.73c-1.44-1.11-7,1.85-7,1.85a3.3,3.3,0,0,0-5.15,0s-5.6-3-7-1.85-1.56,6.69,0,7.9,7-1.85,7-1.85a3.3,3.3,0,0,0,5.15,0s5.59,3,7,1.85S407.78,630.93,406.22,629.73Z" transform="translate(-354.72 -543.37)"/><path class="cls-4" d="M404.94,633.68c0-1.37-5.32-1.24-5.32-1.24a3.26,3.26,0,0,1,.07,2.46S404.94,635,404.94,633.68Z" transform="translate(-354.72 -543.37)"/><path class="cls-4" d="M388.37,633.68c0-1.37,5.33-1.24,5.33-1.24a3.25,3.25,0,0,0-.07,2.46S388.37,635,388.37,633.68Z" transform="translate(-354.72 -543.37)"/></svg>
