<svg id="_ÎÓÈ_1" data-name="—ÎÓÈ 1" xmlns="http://www.w3.org/2000/svg" viewBox="0 0 97.51 128.44"><defs><style>.cls-1{fill:#f15a2b;}.cls-2{fill:#174f5b;}.cls-3{fill:#fff;}.cls-4{fill:#231f20;}</style></defs><circle class="cls-1" cx="48.66" cy="7.4" r="7.4"/><path class="cls-2" d="M570.35,725.13c.06-.78.09-1.57.09-2.36,0-14.41-9.46-26.09-21.12-26.09s-21.12,11.68-21.12,26.09c0,.8,0,1.58.09,2.36Z" transform="translate(-500.66 -689.22)"/><rect class="cls-3" x="545.05" y="700.49" width="8.54" height="8.54" transform="translate(-838.08 -94.58) rotate(-44.99)"/><rect class="cls-3" x="553.47" y="703.28" width="4.54" height="4.54" transform="translate(-836.82 -89.32) rotate(-45.02)"/><rect class="cls-3" x="540.63" y="703.28" width="4.54" height="4.54" transform="translate(-840.58 -98.4) rotate(-45.02)"/><ellipse class="cls-1" cx="48.66" cy="46.46" rx="27.61" ry="22.93"/><path class="cls-4" d="M549.41,721.75c-26.93,0-48.75,33.57-48.75,75,0,.24,0,.47,0,.71l48.69,20.13,48.81-20.13c0-.24,0-.47,0-.71C598.17,755.32,576.34,721.75,549.41,721.75Z" transform="translate(-500.66 -689.22)"/><path class="cls-3" d="M568.55,765.92a26.89,26.89,0,0,0,.86-6.83c0-10-5.24-18.12-11.7-18.12-3.24,0-6.18,2-8.3,5.34-2.12-3.3-5.05-5.34-8.3-5.34-6.46,0-11.7,8.11-11.7,18.12a26.89,26.89,0,0,0,.86,6.83c-5.62,7.29-9.14,17.74-9.14,29.36,0,.72,0,9.95,0,10.66l28.18,11.72,28.29-11.75c0-.72,0-9.91,0-10.63C577.69,783.66,574.17,773.21,568.55,765.92Z" transform="translate(-500.66 -689.22)"/><path class="cls-1" d="M542.45,760.91a8.52,8.52,0,0,0,7.14-4.23,6.94,6.94,0,0,0,6.79,4.23c2.36,0-6.79,7.16-6.79,7.16S540,760.91,542.45,760.91Z" transform="translate(-500.66 -689.22)"/><path class="cls-4" d="M557.24,753.95l1.53-2.44a3.19,3.19,0,1,0,1,1.49Z" transform="translate(-500.66 -689.22)"/><path class="cls-4" d="M541.43,753.95l1.64-2.62a3.16,3.16,0,1,0,1.25,1.55Z" transform="translate(-500.66 -689.22)"/><polygon class="cls-2" points="48.9 85.66 39.2 113.19 48.9 123.83 58.31 113.19 48.9 85.66"/><polygon class="cls-2" points="48.9 93.19 39.2 83.47 58.31 83.47 48.9 93.19"/></svg>
