<svg id="_ÎÓÈ_1" data-name="—ÎÓÈ 1" xmlns="http://www.w3.org/2000/svg" viewBox="0 0 75.38 128.48"><defs><style>.cls-1{fill:#6d6e71;}.cls-2{fill:#bcbec0;}.cls-3{fill:#414042;}.cls-4{fill:#cb9e65;}.cls-5{fill:#896033;}.cls-6{fill:#231f20;}.cls-7{fill:#fff;}</style></defs><path class="cls-1" d="M531.81,454.9c.68.35,2.72,2.06,3.48,2.15.5.06,3.48-1.82,7.21-2,2.2-.1,6.58.82,8.78.66a22.27,22.27,0,0,1,10-1.24c7.19,1,7.7,4.28,9.11,4.14,9.28-.89,8.36-7,10.52-7.32h0a11.31,11.31,0,0,1-.71-3.9c.18-1.24,1.76-3.38,2-4.61.4-2.08-.77-4.82,0-8.48.12-.54,4-12.43,3.74-16.7S583,404.83,580.45,401c-2.2-3.23,2-8.37,2.37-15.46.17-3.67-2-12.3-5.36-13.71-2.71-1.12-11.47,7.31-14.46,9.1s-8.4,2.57-13.72,2.58-10.67-.74-13.72-2.58-11.74-10.22-14.46-9.1c-3.4,1.41-5.53,10-5.36,13.71.32,7.08,4.57,12.22,2.37,15.46-2.58,3.79-5.25,12.22-5.48,16.58s3.62,16.16,3.74,16.7c.77,3.66-.4,6.39,0,8.48.23,1.23,1.81,3.37,2,4.61a9.9,9.9,0,0,1-.59,3.48C522,450.06,528.38,453.15,531.81,454.9Z" transform="translate(-511.75 -371.77)"/><path class="cls-2" d="M562.43,439.72c-1.09-3.47-6.06-3.32-6.86-5.71s3.28-8,2.79-10.53c-.26-1.34-1.87-1.83-3-3.86-1.87-3.25-.52-8.51-5.81-7.19l-.08,0-.16-.05c-5.29-1.32-3.94,3.94-5.81,7.19-1.17,2-2.78,2.52-3,3.86-.5,2.57,3.61,8,2.79,10.53s-5.77,2.25-6.86,5.71c-.83,2.63,0,7.78,4.08,9.51.7.3,1.58-.2,2.31,0,1.67.45,2.09,3.38,6.32,3.66v.05c.23,0,.45,0,.66,0h0c4.23-.28,4.65-3.21,6.32-3.66.74-.2,1.61.3,2.31,0C562.43,447.5,563.26,442.35,562.43,439.72Z" transform="translate(-511.75 -371.77)"/><path class="cls-3" d="M524.11,397.24c2.53,1.78,7-2.33,8.08-5.24,1.81-5.07-6.17-16.48-11.28-14.78C516.76,378.61,519.35,393.89,524.11,397.24Z" transform="translate(-511.75 -371.77)"/><path class="cls-3" d="M574.45,397.24c-2.53,1.78-7-2.33-8.08-5.24-1.82-5.07,6.17-16.48,11.29-14.78C581.8,378.61,579.21,393.89,574.45,397.24Z" transform="translate(-511.75 -371.77)"/><path class="cls-4" d="M531.76,389.66c-1.77,2-8,4.56-7.47,9.59.63,5.8,15.91,6.19,22.4,5,7.37-1.31,27.44-8,22.71-15.18-.92-1.41-3.57-1-3.89-1.09-.91-.18-.54-11.51-5.77-14-3.83-1.8-8.54-.18-11.47-.49-2-.2-6.07-2-7.83-1.09-1.16.59-1.78,3.46-2.43,4.58-1,1.81-3.49,5.22-4.43,7.08C532.81,385.65,532.46,388.86,531.76,389.66Z" transform="translate(-511.75 -371.77)"/><path class="cls-5" d="M531,393l1.09-3.34s4,3.27,16.7,3.34c10.81.06,16.47-4.82,16.47-4.82l.39,3s-4.4,4.68-16.66,5.19C537.94,396.79,531,393,531,393Z" transform="translate(-511.75 -371.77)"/><path class="cls-5" d="M552.16,374.8s-4.72,3.23-9.27,2.57c-2.21-.32-2.07-3.11.5-2.4A17.71,17.71,0,0,0,552.16,374.8Z" transform="translate(-511.75 -371.77)"/><path class="cls-6" d="M540.79,414a3.15,3.15,0,0,0-.35-.42,2.06,2.06,0,0,1-4.08-.23,1.77,1.77,0,0,1,.32-1h-.11c-.48,0-2.22.25-1.9.62a7.91,7.91,0,0,1,1,1.28c1.24,2.4,3.45,1.37,4.55,1.86.34.15.46.87.74.63C541.45,416.28,541.19,414.57,540.79,414Z" transform="translate(-511.75 -371.77)"/><path class="cls-7" d="M538.41,415.23a2,2,0,0,0,2-1.65,3.49,3.49,0,0,0-.84-.61,1,1,0,0,1,.07.38,1.27,1.27,0,0,1-2.53,0,1.14,1.14,0,0,1,.52-.94,9.66,9.66,0,0,0-1-.06,1.77,1.77,0,0,0-.32,1A2,2,0,0,0,538.41,415.23Z" transform="translate(-511.75 -371.77)"/><path class="cls-6" d="M537.15,413.34a1.27,1.27,0,0,0,2.53,0,1,1,0,0,0-.07-.38,5.53,5.53,0,0,0-1.93-.56A1.14,1.14,0,0,0,537.15,413.34Z" transform="translate(-511.75 -371.77)"/><path class="cls-6" d="M577.55,407.74c-7.49-.43-13.93-.41-18.4-.37a5.58,5.58,0,0,0-5.6,3.76h-8.4a5.59,5.59,0,0,0-5.6-3.76c-4.47,0-10.92-.07-18.4.37-.71,0-1.16,1.58-.79,2.79.15.5,1.28.73,1.28,1.64s-1.94,12.69,12.33,12.69c7.41,0,10.37-3.77,11-8.56,0,0,.2-1.86,1.06-2.15a21.23,21.23,0,0,1,6.61,0c.86.29,1.06,2.15,1.06,2.15.66,4.79,3.62,8.56,11,8.56,14.27,0,12.32-11.78,12.32-12.69s1.13-1.14,1.27-1.64C578.7,409.31,578.25,407.78,577.55,407.74ZM534,423.92c-12.2,0-11.86-10.68-10.2-14.09.68-1.38,5.45-1.51,10.08-1.52,4.15,0,8.05-.1,9.17,1.76C545.12,413.54,545.12,423.92,534,423.92Zm30.67,0c-11.11,0-11.11-10.38-9-13.85,1.11-1.86,5-1.76,9.17-1.76,4.62,0,9.4.13,10.08,1.52C576.53,413.24,576.88,423.92,564.67,423.92Z" transform="translate(-511.75 -371.77)"/><path class="cls-6" d="M557.89,414a3,3,0,0,1,.36-.42,2.06,2.06,0,0,0,4.07-.23,1.76,1.76,0,0,0-.32-1h.11c.48,0,2.22.25,1.9.62a7.91,7.91,0,0,0-1,1.28c-1.24,2.4-3.45,1.37-4.55,1.86-.34.15-.46.87-.75.63C557.23,416.28,557.49,414.57,557.89,414Z" transform="translate(-511.75 -371.77)"/><path class="cls-7" d="M560.27,415.23a2,2,0,0,1-2-1.65,3.47,3.47,0,0,1,.83-.61,1.08,1.08,0,0,0-.07.38,1.27,1.27,0,0,0,2.53,0,1.13,1.13,0,0,0-.52-.94,9.65,9.65,0,0,1,1-.06,1.76,1.76,0,0,1,.32,1A2,2,0,0,1,560.27,415.23Z" transform="translate(-511.75 -371.77)"/><path class="cls-6" d="M561.53,413.34a1.27,1.27,0,0,1-2.53,0,1.08,1.08,0,0,1,.07-.38,5.55,5.55,0,0,1,1.93-.56A1.13,1.13,0,0,1,561.53,413.34Z" transform="translate(-511.75 -371.77)"/><path class="cls-6" d="M549.28,448.48c-.69-.46-.46-1.9-2.11-2.57-1-.41-2.81-1.79-3-2.86-.53-2.58,0-6.83,5.55-6.83,5.15,0,6.48,3.7,5.46,6.83a6.93,6.93,0,0,1-3.23,2.86c-1.51.53-1,2.12-1.57,2.57A1.33,1.33,0,0,1,549.28,448.48Z" transform="translate(-511.75 -371.77)"/><path class="cls-4" d="M586.87,455.65c-.43-1.79-2.33-5-6-4.34-2.16.37-1.24,6.43-10.52,7.32-1.41.13-1.92-3.15-9.11-4.14a22.27,22.27,0,0,0-10,1.24c-2.2.15-6.58-.76-8.78-.66-3.73.17-6.71,2-7.21,2-.75-.09-2.8-1.8-3.48-2.15-3.42-1.76-9.82-4.84-14-4a4.9,4.9,0,0,0-2.27,1c-6.16,5.23-3.66,12.62-.08,16.89a14.35,14.35,0,0,0,5,3.72c-5.64-7-5.29-13.66-5.29-13.66s2.82,8.61,7.37,13.58a34.54,34.54,0,0,0,12.88,8.8,33.78,33.78,0,0,1-9.55-3.85,19.42,19.42,0,0,0-1.09,3.57c-.5,5.38,1.72,8.38,2.07,10.52.26,1.59.58,4.3.58,4.3a14.27,14.27,0,0,0,7.54,3.06c1.61.12,4.76-1,6.37-1.08,5.88-.33,13.1,3.56,13.08,2.15,0-1-4.89-7.54-7.28-11.59-.45-.76-.2-2.8,0-4.2a38.72,38.72,0,0,0,10.47.31c6.92-1,9.74-3.07,10.89-4.61a35.26,35.26,0,0,1-7.08-1.44c-12.59-4.06-14.32-10.7-14.32-10.7s4.9,6.11,14.9,9a29,29,0,0,0,7.71,1.13c1.47-.41,6.33-1.8,7.94-2.78C585,470.55,588.08,460.73,586.87,455.65Z" transform="translate(-511.75 -371.77)"/></svg>
