<svg id="Layer_1" data-name="Layer 1" xmlns="http://www.w3.org/2000/svg" viewBox="0 0 378.23 122.76"><defs><style>.cls-1{fill:#ffffff;}</style></defs><path class="cls-1" d="M145.72,211.16H114.4L105,238.28H99.52l27.84-79.08h5.52l27.84,79.08H155Zm-1.56-4.68-5-14.76q-2.4-7.08-4.56-13.56t-4.2-13.8h-.48q-2,7.32-4.2,13.8t-4.56,13.56l-5,14.76Z" transform="translate(-99.52 -141.57)"/><path class="cls-1" d="M172,243.32v21h-5.28V180.68h4.56l.48,7.2h.36a58.65,58.65,0,0,1,9.18-6,21.89,21.89,0,0,1,10.38-2.64q11.52,0,17.28,8t5.76,21.42a39.06,39.06,0,0,1-2,13.08,29.54,29.54,0,0,1-5.58,9.78,24.06,24.06,0,0,1-8.16,6.12,23.11,23.11,0,0,1-9.66,2.1,21.18,21.18,0,0,1-8.4-1.86,45.26,45.26,0,0,1-8.88-5.22Zm0-15.72a36.14,36.14,0,0,0,9.36,5.76A21.52,21.52,0,0,0,189,235a17.26,17.26,0,0,0,8-1.92,18.64,18.64,0,0,0,6.36-5.4,26.72,26.72,0,0,0,4.14-8.34,36.31,36.31,0,0,0,1.5-10.74,45.14,45.14,0,0,0-1-9.84,23.68,23.68,0,0,0-3.18-7.86,15.23,15.23,0,0,0-5.64-5.16,17.62,17.62,0,0,0-8.4-1.86,19,19,0,0,0-8.94,2.46,55.23,55.23,0,0,0-9.9,7Z" transform="translate(-99.52 -141.57)"/><path class="cls-1" d="M231.28,243.32v21H226V180.68h4.56l.48,7.2h.36a58.65,58.65,0,0,1,9.18-6A21.89,21.89,0,0,1,251,179.24q11.52,0,17.28,8T274,208.64a39.06,39.06,0,0,1-2,13.08,29.54,29.54,0,0,1-5.58,9.78,24.06,24.06,0,0,1-8.16,6.12,23.11,23.11,0,0,1-9.66,2.1,21.18,21.18,0,0,1-8.4-1.86,45.26,45.26,0,0,1-8.88-5.22Zm0-15.72a36.14,36.14,0,0,0,9.36,5.76,21.52,21.52,0,0,0,7.68,1.68,17.26,17.26,0,0,0,8-1.92,18.64,18.64,0,0,0,6.36-5.4,26.72,26.72,0,0,0,4.14-8.34,36.31,36.31,0,0,0,1.5-10.74,45.14,45.14,0,0,0-1-9.84,23.68,23.68,0,0,0-3.18-7.86,15.23,15.23,0,0,0-5.64-5.16,17.62,17.62,0,0,0-8.4-1.86,19,19,0,0,0-8.94,2.46,55.23,55.23,0,0,0-9.9,7Z" transform="translate(-99.52 -141.57)"/><path class="cls-1" d="M283.48,160H302.2l13.08,35.16L320,208.88h.48l4.68-13.68L337.84,160h18.6v78.24H340V209.6q0-2.88.24-6.36t.6-7q.36-3.54.72-7t.72-6.3h-.48l-6.48,18.12-12,30.36h-7.08l-12-30.36L298,183h-.48q.36,2.88.72,6.3t.66,7q.3,3.54.54,7t.24,6.36v28.68h-16.2Z" transform="translate(-99.52 -141.57)"/><path class="cls-1" d="M365.32,221.72a16.67,16.67,0,0,1,7.92-14.64q7.92-5.28,25.56-7.08a9.85,9.85,0,0,0-2.4-6.3q-2.16-2.34-7-2.34a21.73,21.73,0,0,0-7.68,1.44,53.9,53.9,0,0,0-8.16,4l-6.24-11.64a62.4,62.4,0,0,1,12.06-5.64,41,41,0,0,1,13.38-2.16q11.52,0,17.58,6.54t6.06,20.34v34.08H402l-1.32-6.12h-.36a37.37,37.37,0,0,1-8.1,5.46,20.77,20.77,0,0,1-9.3,2.1,18.53,18.53,0,0,1-7.32-1.38,15.88,15.88,0,0,1-5.52-3.84,17.73,17.73,0,0,1-3.54-5.7A19.34,19.34,0,0,1,365.32,221.72Zm16.8-1.32a5,5,0,0,0,1.86,4.26,8.16,8.16,0,0,0,5,1.38,9.94,9.94,0,0,0,5.28-1.32A25.2,25.2,0,0,0,398.8,221V210.56q-9.48,1.32-13.08,3.84T382.12,220.4Z" transform="translate(-99.52 -141.57)"/><path class="cls-1" d="M425.56,178.76H443.2v59.52H425.56Z" transform="translate(-99.52 -141.57)"/><path class="cls-1" d="M452.68,164.16h17.64v56.36q0,2.76,1,3.84a2.92,2.92,0,0,0,2.1,1.08h1a3.82,3.82,0,0,0,1.14-.24l2.16,13.08a18.89,18.89,0,0,1-3.66,1,28.4,28.4,0,0,1-5.22.42,18.27,18.27,0,0,1-7.68-1.44,12.38,12.38,0,0,1-5-4,17,17,0,0,1-2.7-6.24,36.81,36.81,0,0,1-.84-8.22Z" transform="translate(-99.52 -141.57)"/><polygon class="cls-1" points="315.26 15.93 325.72 16.12 325.82 31.17 344.74 31.27 344.84 15.27 354.45 15.44 335.29 0 315.26 15.93"/></svg>
