<svg id="Layer_1" data-name="Layer 1" xmlns="http://www.w3.org/2000/svg" viewBox="0 0 120 120"><defs><style>.cls-1{fill:#fff;}</style></defs><g id="Page-1"><g id="u26"><path id="Fill-132" class="cls-1" d="M107,92a13,13,0,1,0,13,13,13,13,0,0,0-13-13" transform="translate(0 0)"/><path id="Fill-133" class="cls-1" d="M26,112.59A7.42,7.42,0,0,0,33.41,120h7.18A7.42,7.42,0,0,0,48,112.59V102H26v10.59" transform="translate(0 0)"/><path id="Fill-134" class="cls-1" d="M64,112.59A7.42,7.42,0,0,0,71.41,120h7.18A7.42,7.42,0,0,0,86,112.59V102H64v10.59" transform="translate(0 0)"/><path id="Fill-135" class="cls-1" d="M36,44a47.84,47.84,0,0,0,6.34,24h65.32A47.84,47.84,0,0,0,114,44C114,19.74,96.5,0,75,0S36,19.74,36,44" transform="translate(0 0)"/><path id="Fill-136" class="cls-1" d="M105.06,72H44.94A39.14,39.14,0,0,0,64,86.21V98H86V86.21A39.14,39.14,0,0,0,105.06,72" transform="translate(0 0)"/><path id="Fill-137" class="cls-1" d="M31,44c0-17.71,8.8-33.15,21.75-41.16A34.64,34.64,0,0,0,39,0C17.5,0,0,19.74,0,44A47.84,47.84,0,0,0,6.34,68H36.91A51,51,0,0,1,31,44" transform="translate(0 0)"/><path id="Fill-138" class="cls-1" d="M39.32,72H8.94A39.55,39.55,0,0,0,26,85.48V98H48V86.77a35.19,35.19,0,0,0,4.75-1.61A44.18,44.18,0,0,1,39.32,72" transform="translate(0 0)"/></g></g></svg>
