<svg id="Layer_1" data-name="Layer 1" xmlns="http://www.w3.org/2000/svg" viewBox="0 0 108 112"><defs><style>.cls-1{fill:#fff;}</style></defs><g id="Page-1"><g id="e6"><path id="Fill-116" class="cls-1" d="M105.46,58H2.54A2.54,2.54,0,0,0,0,60.54v45.71A5.76,5.76,0,0,0,5.75,112h96.5a5.76,5.76,0,0,0,5.75-5.75V60.54A2.54,2.54,0,0,0,105.46,58ZM76,90H32a10,10,0,0,1,0-20H76a10,10,0,0,1,0,20Z" transform="translate(0 0)"/><path id="Fill-117" class="cls-1" d="M2.4,54H105.6a2.28,2.28,0,0,0,2.12-3.12L88.7,3.37a5.34,5.34,0,0,0-5-3.37H24.28a5.34,5.34,0,0,0-5,3.37L.28,50.9A2.28,2.28,0,0,0,2.4,54ZM28,10H80a2,2,0,1,1,0,4H28a2,2,0,1,1,0-4ZM24,20H84a2,2,0,0,1,0,4H24a2,2,0,0,1,0-4ZM20,30H88a2,2,0,0,1,0,4H20a2,2,0,1,1,0-4ZM16,40H92a2,2,0,0,1,0,4H16a2,2,0,0,1,0-4Z" transform="translate(0 0)"/></g></g></svg>
