<?xml version="1.0" encoding="UTF-8" standalone="no"?>
<svg width="120px" height="76px" viewBox="0 0 120 76" version="1.1" xmlns="http://www.w3.org/2000/svg" xmlns:xlink="http://www.w3.org/1999/xlink">
    <!-- Generator: Sketch 3.8.2 (29753) - http://www.bohemiancoding.com/sketch -->
    <title>zf6</title>
    <desc>Created with Sketch.</desc>
    <defs></defs>
    <g id="Page-1" stroke="none" stroke-width="1" fill="none" fill-rule="evenodd">
        <g id="zf6" transform="translate(0.000000, -2.000000)" fill="#000000">
            <path d="M72,32 L104.476,32 L96.718,38.464 C95.872,39.17 95.756,40.432 96.462,41.28 C96.86,41.754 97.428,42 98.002,42 C98.454,42 98.906,41.848 99.282,41.536 L111.282,31.536 C111.304,31.518 111.312,31.488 111.332,31.47 C111.478,31.338 111.588,31.176 111.69,31.006 C111.73,30.94 111.786,30.886 111.818,30.814 C111.932,30.564 112,30.292 112,30 C112,29.708 111.932,29.436 111.818,29.186 C111.786,29.114 111.73,29.06 111.69,28.994 C111.588,28.824 111.478,28.662 111.332,28.53 C111.312,28.512 111.304,28.482 111.282,28.464 L99.282,18.464 C98.43,17.754 97.172,17.874 96.462,18.72 C95.756,19.568 95.872,20.83 96.718,21.536 L104.476,28 L72,28 C70.894,28 70,28.896 70,30 C70,31.104 70.894,32 72,32" id="Fill-106"></path>
            <polygon id="Fill-107" points="40 19.166 40 2.012 28.012 2 28 19.166 34 13.166"></polygon>
            <polygon id="Fill-108" points="20 50 32 50 32 42 20 42"></polygon>
            <path d="M108,70 C106.896,70 106,69.104 106,68 C106,66.896 106.896,66 108,66 C109.104,66 110,66.896 110,68 C110,69.104 109.104,70 108,70 L108,70 Z M100,70 C98.896,70 98,69.104 98,68 C98,66.896 98.896,66 100,66 C101.104,66 102,66.896 102,68 C102,69.104 101.104,70 100,70 L100,70 Z M92,70 C90.896,70 90,69.104 90,68 C90,66.896 90.896,66 92,66 C93.104,66 94,66.896 94,68 C94,69.104 93.104,70 92,70 L92,70 Z M84,70 C82.896,70 82,69.104 82,68 C82,66.896 82.896,66 84,66 C85.104,66 86,66.896 86,68 C86,69.104 85.104,70 84,70 L84,70 Z M76,70 C74.896,70 74,69.104 74,68 C74,66.896 74.896,66 76,66 C77.104,66 78,66.896 78,68 C78,69.104 77.104,70 76,70 L76,70 Z M68,70 C66.896,70 66,69.104 66,68 C66,66.896 66.896,66 68,66 C69.104,66 70,66.896 70,68 C70,69.104 69.104,70 68,70 L68,70 Z M60,70 C58.896,70 58,69.104 58,68 C58,66.896 58.896,66 60,66 C61.104,66 62,66.896 62,68 C62,69.104 61.104,70 60,70 L60,70 Z M52,70 C50.896,70 50,69.104 50,68 C50,66.896 50.896,66 52,66 C53.104,66 54,66.896 54,68 C54,69.104 53.104,70 52,70 L52,70 Z M44,70 C42.896,70 42,69.104 42,68 C42,66.896 42.896,66 44,66 C45.104,66 46,66.896 46,68 C46,69.104 45.104,70 44,70 L44,70 Z M36,70 C34.896,70 34,69.104 34,68 C34,66.896 34.896,66 36,66 C37.104,66 38,66.896 38,68 C38,69.104 37.104,70 36,70 L36,70 Z M28,70 C26.896,70 26,69.104 26,68 C26,66.896 26.896,66 28,66 C29.104,66 30,66.896 30,68 C30,69.104 29.104,70 28,70 L28,70 Z M20,70 C18.896,70 18,69.104 18,68 C18,66.896 18.896,66 20,66 C21.104,66 22,66.896 22,68 C22,69.104 21.104,70 20,70 L20,70 Z M12,70 C10.896,70 10,69.104 10,68 C10,66.896 10.896,66 12,66 C13.104,66 14,66.896 14,68 C14,69.104 13.104,70 12,70 L12,70 Z M16,40 C16,38.896 16.894,38 18,38 L34,38 C35.106,38 36,38.896 36,40 L36,52 C36,53.104 35.106,54 34,54 L18,54 C16.894,54 16,53.104 16,52 L16,40 Z M110,58 L60,58 L60,8 C60,4.692 57.308,2 54,2 L44,2 C44,1.828 43.97,1.664 43.948,1.496 C43.97,1.668 44,1.836 44,2.012 L44,20.584 C44,21.97 43.174,23.208 41.892,23.738 C41.468,23.914 41.024,24 40.584,24 C39.698,24 38.83,23.652 38.176,22.998 L34,18.822 L29.824,22.998 C28.846,23.978 27.388,24.268 26.108,23.738 C24.826,23.208 24,21.97 24,20.584 L24,2.012 C24,1.836 24.03,1.668 24.052,1.496 C24.03,1.664 24,1.828 24,2 L14,2 C10.692,2 8,4.692 8,8 L8,58.202 C3.442,59.132 0,63.172 0,68 C0,73.514 4.486,78 10,78 L110,78 C115.514,78 120,73.514 120,68 C120,62.486 115.514,58 110,58 L110,58 Z" id="Fill-109"></path>
        </g>
    </g>
</svg>
