<?xml version="1.0" encoding="UTF-8" standalone="no"?>
<svg width="120px" height="92px" viewBox="0 0 120 92" version="1.1" xmlns="http://www.w3.org/2000/svg" xmlns:xlink="http://www.w3.org/1999/xlink">
    <!-- Generator: Sketch 3.8.2 (29753) - http://www.bohemiancoding.com/sketch -->
    <title>zf47</title>
    <desc>Created with Sketch.</desc>
    <defs></defs>
    <g id="Page-1" stroke="none" stroke-width="1" fill="none" fill-rule="evenodd">
        <g id="zf47" fill="#999999">
            <path d="M120,10.3886 C120,7.9226 119.102,5.6866 117.662,3.9026 L71.89,47.5886 L118.146,87.5106 C119.308,85.8326 120,83.8026 120,81.6106 L120,10.3886 Z" id="Fill-8"></path>
            <path d="M52.416,46.2106 C52.418,46.2126 52.422,46.2146 52.426,46.2166 L54.02,47.6986 C57.376,50.8226 62.628,50.8206 65.978,47.7006 L114.574,1.3186 C113.094,0.5046 111.418,0.0006 109.612,0.0006 L10.388,0.0006 C8.232,0.0006 6.228,0.6626 4.566,1.7906 L52.416,46.2106 Z" id="Fill-9"></path>
            <path d="M1.75,4.633 C0.648,6.283 0,8.261 0,10.389 L0,81.611 C0,83.679 0.624,85.597 1.668,87.217 L48.056,47.619 L1.75,4.633 Z" id="Fill-10"></path>
            <path d="M68.9864,50.3672 L68.7384,50.5972 L68.7224,50.6112 L68.7204,50.6132 L68.7024,50.6292 C65.6524,53.4692 61.5204,54.5352 57.6564,53.8212 C57.4024,53.7752 57.1604,53.6732 56.9084,53.6112 C56.3984,53.4852 55.8824,53.3732 55.3884,53.1832 C54.6544,52.9012 53.9424,52.5492 53.2624,52.1272 C53.2564,52.1232 53.2504,52.1212 53.2444,52.1192 C52.5584,51.6932 51.9064,51.1952 51.2944,50.6272 L51.0064,50.3592 L4.4444,90.1072 C6.1304,91.2912 8.1744,91.9992 10.3884,91.9992 L109.6104,91.9992 C111.6984,91.9992 113.6344,91.3692 115.2644,90.3052 L68.9864,50.3672 Z" id="Fill-11"></path>
        </g>
    </g>
</svg>
