<svg id="Layer_1" data-name="Layer 1" xmlns="http://www.w3.org/2000/svg" viewBox="0 0 116 108"><defs><style>.cls-1{fill:#ffffff;}</style></defs><g id="Page-1"><g id="e8"><path id="Fill-261" class="cls-1" d="M43.41,44.59a2,2,0,0,0-2.83,2.83l16,16h0L58,64.83l1.41-1.41h0l16-16a2,2,0,1,0-2.83-2.83L60,57.17V2a2,2,0,1,0-4,0V57.17L43.41,44.59" transform="translate(0 0)"/><path id="Fill-262" class="cls-1" d="M116,61.35l-.9-1.35h0l-7.16-10.76L103,42h0l-8-12H72v4H92.93l17.36,26H78V74H38V60H5.71L23.07,34H44V30H20.93L.86,60.06h0L0,61.31v39.92A6.78,6.78,0,0,0,6.77,108H109.23a6.78,6.78,0,0,0,6.77-6.77V61.62l0-.07v-.2" transform="translate(0 0)"/></g></g></svg>
