<?xml version="1.0" encoding="UTF-8" standalone="no"?>
<svg width="76px" height="120px" viewBox="0 0 76 120" version="1.1" xmlns="http://www.w3.org/2000/svg" xmlns:xlink="http://www.w3.org/1999/xlink" xmlns:sketch="http://www.bohemiancoding.com/sketch/ns">
    <!-- Generator: Sketch 3.3.2 (12043) - http://www.bohemiancoding.com/sketch -->
    <title>w50</title>
    <desc>Created with Sketch.</desc>
    <defs></defs>
    <g id="Page-1" stroke="none" stroke-width="1" fill="none" fill-rule="evenodd" sketch:type="MSPage">
        <g id="w50" sketch:type="MSLayerGroup" fill="#000000">
            <path d="M38,38 C38,39.104 38.896,40 40,40 C41.104,40 42,39.104 42,38 L42,22 C42,20.896 41.104,20 40,20 C38.896,20 38,20.896 38,22 L38,38" id="Fill-333" sketch:type="MSShapeGroup"></path>
            <path d="M38,82 C34.692,82 32,84.692 32,88 C32,91.308 34.692,94 38,94 C41.308,94 44,91.308 44,88 C44,84.692 41.308,82 38,82" id="Fill-334" sketch:type="MSShapeGroup"></path>
            <path d="M74.626,52.176 C74.672,51.942 74.708,51.71 74.742,51.474 L74.81,51.036 C74.812,51.03 74.81,51.024 74.81,51.018 C76.808,39.472 76.356,27.418 73.458,16.064 C72.416,9.126 66.882,3.634 59.94,2.64 C54.172,1.012 48.168,0.172 42,0.056 L42,16.368 C44.322,17.196 46,19.396 46,22 L46,38 C46,40.604 44.322,42.804 42,43.632 L42,54 C42,55.106 41.106,56 40,56 C38.894,56 38,55.106 38,54 L38,43.632 C35.676,42.804 34,40.604 34,38 L34,22 C34,19.396 35.676,17.196 38,16.368 L38,0.094 C32.152,0.29 26.174,1.11 20.092,2.638 C13.13,3.618 7.584,9.118 6.542,16.066 C5.21,21.372 6.04,27.712 6.914,34.426 C7.374,37.954 7.85,41.6 7.964,44.992 C8.172,51.17 7.48,57.152 5.906,62.774 C5.374,64.678 4.516,66.712 3.608,68.868 C1.834,73.074 0,77.426 0,82 C0,105.44 14.178,120 37,120 C53.054,120 66.872,108.746 72.844,92.716 C72.848,92.71 72.854,92.704 72.858,92.698 C72.866,92.674 72.872,92.652 72.88,92.628 C73.382,91.274 73.828,89.888 74.214,88.47 C74.22,88.448 74.226,88.426 74.232,88.404 C74.616,86.988 74.942,85.542 75.204,84.07 C75.21,84.036 75.214,84 75.22,83.966 C75.474,82.528 75.668,81.068 75.798,79.584 C75.802,79.55 75.802,79.516 75.806,79.482 C75.932,78.008 76,76.512 76,75 C76,69.468 75.12,64.034 73.378,58.83 L74.626,52.176 L74.626,52.176 Z M11.804,79.882 C10.452,81.668 7.92,81.63 4.176,80.052 C4.606,76.87 5.982,73.58 7.318,70.386 C8.266,68.126 9.16,65.988 9.758,63.852 C10.136,62.504 10.448,61.13 10.73,59.748 C10.804,59.384 10.872,59.02 10.938,58.656 C11.02,58.218 11.118,57.786 11.19,57.346 C13.138,66.098 14.586,76.212 11.804,79.882 L11.804,79.882 Z M38,98 C32.486,98 28,93.514 28,88 C28,82.486 32.486,78 38,78 C43.514,78 48,82.486 48,88 C48,93.514 43.514,98 38,98 L38,98 Z M71.824,79.08 C71.784,79.554 71.702,80.02 71.648,80.492 C71.55,81.35 71.458,82.21 71.314,83.05 C71.208,83.674 71.056,84.288 70.924,84.908 C70.782,85.568 70.656,86.236 70.488,86.884 C70.3,87.612 70.064,88.328 69.84,89.046 C69.698,89.498 69.57,89.956 69.416,90.402 C67.89,90.856 66.574,91.088 65.492,91.088 C63.62,91.088 62.964,90.402 62.634,89.886 C59.834,85.506 65.702,71.29 70.04,61.68 C70.134,61.998 70.238,62.312 70.326,62.63 C70.454,63.102 70.578,63.572 70.69,64.048 C70.866,64.782 71.018,65.524 71.158,66.268 C71.246,66.732 71.34,67.196 71.412,67.664 C71.54,68.474 71.634,69.292 71.718,70.11 C71.76,70.512 71.816,70.912 71.848,71.316 C71.942,72.538 72,73.766 72,75 C72,76.376 71.938,77.736 71.824,79.08 L71.824,79.08 Z" id="Fill-335" sketch:type="MSShapeGroup"></path>
        </g>
    </g>
</svg>
