<svg id="Layer_1" data-name="Layer 1" xmlns="http://www.w3.org/2000/svg" viewBox="0 0 120 114"><defs><style>.cls-1{fill:#fff;}</style></defs><g id="Page-1"><g id="c37"><path id="Fill-80" class="cls-1" d="M118,102V94h-4V90a4,4,0,0,0-4-4V54a4,4,0,0,0,4-4V46h5.24l-6-12H99.48l-4-12H92.86C91.46,9.7,77.27,0,60,0S28.31,9.7,26.89,22H24.56l-4,12H6.76l-6,12H6v4a4,4,0,0,0,4,4V86a4,4,0,0,0-4,4v4H2v8H0v12H120V102ZM98,54V86a4,4,0,0,0-4,4v4H92V90a4,4,0,0,0-4-4V54a4,4,0,0,0,4-4V46h2v4a4,4,0,0,0,4,4ZM44,86V54a4,4,0,0,0,4-4V46h2v4a4,4,0,0,0,4,4V86a4,4,0,0,0-4,4v4H48V90a4,4,0,0,0-4-4Zm22,0V54a4,4,0,0,0,4-4V46h2v4a4,4,0,0,0,4,4V86a4,4,0,0,0-4,4v4H70V90a4,4,0,0,0-4-4ZM31.35,28.28l-5.81,3.37L27.44,26h7.85l-3.93,2.28ZM60,16.31,90.55,34H29.45L60,16.31ZM94.47,31.64,84.72,26h7.85l1.9,5.64ZM9.24,38H110.76l2,4H7.24l2-4ZM22,86V54a4,4,0,0,0,4-4V46h2v4a4,4,0,0,0,4,4V86a4,4,0,0,0-4,4v4H26V90a4,4,0,0,0-4-4ZM6,98H114v4H6Z" transform="translate(0 0)"/></g></g></svg>
