<svg id="Layer_1" data-name="Layer 1" xmlns="http://www.w3.org/2000/svg" viewBox="0 0 116 108"><defs><style>.cls-1{fill:#0e69d5;}</style></defs><g id="Page-1"><g id="e9"><path id="Fill-263" class="cls-1" d="M72.59,20.24a2,2,0,0,0,2.83-2.83l-16-16h0L58,0,56.59,1.41h0l-16,16a2,2,0,0,0,2.83,2.83L56,7.66V62.83a2,2,0,1,0,4,0V7.66L72.59,20.24" transform="translate(0 0)"/><path id="Fill-264" class="cls-1" d="M116,61.35l-.9-1.35h0l-7.16-10.76L103,42h0l-8-12H72v4H92.93l17.36,26H78V74H38V60H5.71L23.07,34H44V30H20.93L.86,60.06h0L0,61.31v39.92A6.78,6.78,0,0,0,6.77,108H109.23a6.78,6.78,0,0,0,6.77-6.77V61.62l0-.07v-.2" transform="translate(0 0)"/></g></g></svg>
