<?xml version="1.0" encoding="UTF-8" standalone="no"?>
<svg width="121px" height="88px" viewBox="0 0 121 88" version="1.1" xmlns="http://www.w3.org/2000/svg" xmlns:xlink="http://www.w3.org/1999/xlink">
    <!-- Generator: Sketch 3.8.2 (29753) - http://www.bohemiancoding.com/sketch -->
    <title>a195</title>
    <desc>Created with Sketch.</desc>
    <defs></defs>
    <g id="Page-1" stroke="none" stroke-width="1" fill="none" fill-rule="evenodd">
        <g id="a195" transform="translate(-1.000000, -2.000000)" fill="#000000">
            <path d="M53.4144,89.4394 C52.8844,89.4394 52.3744,89.2294 52.0004,88.8534 L2.5024,39.3554 C1.7224,38.5734 1.7224,37.3094 2.5024,36.5274 L16.6444,22.3854 C17.3944,21.6354 18.7224,21.6354 19.4724,22.3854 L53.3484,56.2594 L79.0504,28.1034 L64.8464,13.8974 C64.3144,13.3674 64.1244,12.5814 64.3584,11.8654 C64.5904,11.1494 65.2064,10.6274 65.9484,10.5094 L119.6884,2.0254 C120.3244,1.9194 120.9624,2.1334 121.4144,2.5854 C121.8684,3.0394 122.0764,3.6794 121.9744,4.3134 L113.4904,58.0534 C113.3724,58.7954 112.8504,59.4094 112.1344,59.6434 C111.4204,59.8794 110.6324,59.6874 110.1024,59.1534 L96.0244,45.0774 L69.0344,74.6454 L54.8284,88.8534 C54.4544,89.2294 53.9444,89.4394 53.4144,89.4394" id="Fill-108"></path>
        </g>
    </g>
</svg>
