<svg id="Layer_1" data-name="Layer 1" xmlns="http://www.w3.org/2000/svg" viewBox="0 0 108 97.28"><defs><style>.cls-1{fill:#98a5c0;}</style></defs><g id="Page-1"><g id="g185"><g id="Stroke-722"><path class="cls-1" d="M24,98A24,24,0,1,1,48,74,24,24,0,0,1,24,98Zm0-44A20,20,0,1,0,44,74,20,20,0,0,0,24,54Z" transform="translate(0 -0.72)"/></g><g id="Stroke-724"><path class="cls-1" d="M46,76.88h0a2,2,0,0,1-2-2.08c0-.13,0-.26,0-.4s0-.27,0-.4a2,2,0,0,1,4,0v.88A2,2,0,0,1,46,76.88Z" transform="translate(0 -0.72)"/></g><g id="Stroke-726"><path class="cls-1" d="M46,76a2,2,0,0,1-2-2A20,20,0,0,0,6.59,64.18a2,2,0,0,1-3.68-1.46L14.77,14.09A17.26,17.26,0,0,1,30.44.74h0A16.79,16.79,0,0,1,48,17.51V74A2,2,0,0,1,46,76ZM24,50A24,24,0,0,1,44,60.75V17.51A12.79,12.79,0,0,0,30.62,4.73h0A13.25,13.25,0,0,0,18.65,15L8.8,55.45A24,24,0,0,1,24,50Z" transform="translate(0 -0.72)"/></g><g id="Stroke-728"><path class="cls-1" d="M62,56H46a2,2,0,0,1-2-2V28a2,2,0,0,1,2-2H62a2,2,0,0,1,2,2V54A2,2,0,0,1,62,56ZM48,52H60V30H48Z" transform="translate(0 -0.72)"/></g><g id="Stroke-730"><path class="cls-1" d="M84,98a24,24,0,1,1,24-24A24,24,0,0,1,84,98Zm0-44a20,20,0,1,0,20,20A20,20,0,0,0,84,54Z" transform="translate(0 -0.72)"/></g><g id="Stroke-732"><path class="cls-1" d="M62,76.88a2,2,0,0,1-2-2V74a2,2,0,0,1,4,0c0,.14,0,.27,0,.4s0,.26,0,.4a2,2,0,0,1-2,2.08Z" transform="translate(0 -0.72)"/></g><g id="Stroke-734"><path class="cls-1" d="M62,76a2,2,0,0,1-2-2V17.51A16.79,16.79,0,0,1,77.56.74h0A17.27,17.27,0,0,1,93.23,14.09l11.86,48.63a2,2,0,0,1-3.68,1.46A20,20,0,0,0,64,74,2,2,0,0,1,62,76ZM76.78,4.72A12.79,12.79,0,0,0,64,17.51V60.75a24,24,0,0,1,35.2-5.3L89.35,15a13.25,13.25,0,0,0-12-10.31Z" transform="translate(0 -0.72)"/></g></g></g></svg>
