<?xml version="1.0" encoding="utf-8"?>
<!-- Generator: Adobe Illustrator 18.1.0, SVG Export Plug-In . SVG Version: 6.00 Build 0)  -->
<!DOCTYPE svg PUBLIC "-//W3C//DTD SVG 1.1//EN" "http://www.w3.org/Graphics/SVG/1.1/DTD/svg11.dtd">
<svg version="1.1" id="Layer_1" xmlns="http://www.w3.org/2000/svg" xmlns:xlink="http://www.w3.org/1999/xlink" x="0px" y="0px"
   viewBox="0 0 85.3 50.5" enable-background="new 0 0 85.3 50.5" xml:space="preserve">
<g>
  <path fill="#3c4249" d="M81.5,9.5L44,47c-0.5,0.5-1.2,0.8-1.8,0.8s-1.4-0.3-1.8-0.8L2.9,9.5C2.4,9,2.1,8.3,2.1,7.7s0.3-1.4,0.8-1.8
    l4-4C7.4,1.3,8,1,8.7,1c0.6,0,1.4,0.3,1.8,0.8l31.6,31.6L73.8,1.8C74.2,1.3,75,1,75.6,1s1.4,0.3,1.8,0.8l4,4
    c0.5,0.5,0.8,1.2,0.8,1.8S81.9,9,81.5,9.5z"/>
</g>
</svg>
