<svg id="Layer_1" data-name="Layer 1" xmlns="http://www.w3.org/2000/svg" viewBox="0 0 96 118"><defs><style>.cls-1{fill:#fff;}</style></defs><g id="Page-1"><g id="g33"><path id="Fill-702" class="cls-1" d="M94,12H65.91c-.22-2.5-1-6.72-3.63-9.42A8.46,8.46,0,0,0,56,0H36a8.46,8.46,0,0,0-6.29,2.58C27.08,5.28,26.31,9.5,26.09,12H2a2,2,0,0,0,0,4H6.08l3.83,92c.07,3.44,2.22,10,9.82,10H76.27c7.6,0,9.74-6.51,9.81-9.92L89.92,16H94a2,2,0,0,0,0-4ZM30,100a2,2,0,1,1-4,0V34a2,2,0,1,1,4,0v66Zm20,0a2,2,0,1,1-4,0V34a2,2,0,1,1,4,0v66Zm20,0a2,2,0,1,1-4,0V34a2,2,0,1,1,4,0v66ZM32.59,5.36A4.53,4.53,0,0,1,36,4H56a4.53,4.53,0,0,1,3.42,1.36C61,7,61.67,9.9,61.89,12H30.11c.22-2.1.87-5,2.48-6.64Z" transform="translate(0 0)"/></g></g></svg>
