<?xml version="1.0" encoding="UTF-8" standalone="no"?>
<svg width="120px" height="88px" viewBox="0 0 120 88" version="1.1" xmlns="http://www.w3.org/2000/svg" xmlns:xlink="http://www.w3.org/1999/xlink">
    <!-- Generator: Sketch 3.8.2 (29753) - http://www.bohemiancoding.com/sketch -->
    <title>zf30</title>
    <desc>Created with Sketch.</desc>
    <defs></defs>
    <g id="Page-1" stroke="none" stroke-width="1" fill="none" fill-rule="evenodd">
        <g id="zf30" fill="#000000">
            <polygon id="Fill-161" points="86 26.3604 102 29.5604 102 18.0004 86 18.0004"></polygon>
            <polygon id="Fill-162" points="112 48 120 48 120 42 112 42"></polygon>
            <path d="M113.4238,58 C114.1798,58 114.6438,58.416 114.8558,58.664 C115.0638,58.912 115.3978,59.44 115.2758,60.186 L114.3058,66 L109.9998,66 L109.9998,65.396 C109.9998,64.76 109.9338,64.138 109.8338,63.528 C109.8178,63.436 109.8078,63.342 109.7898,63.25 C109.6838,62.692 109.5298,62.15 109.3438,61.624 C109.2978,61.49 109.2498,61.356 109.1978,61.224 C109.0018,60.728 108.7758,60.25 108.5138,59.792 C108.4378,59.656 108.3558,59.526 108.2738,59.394 C107.9878,58.938 107.6798,58.498 107.3378,58.088 C107.3138,58.06 107.2978,58.028 107.2738,58 L113.4238,58 Z M105.9998,32 C105.9998,32.6 105.7298,33.166 105.2678,33.546 C104.9078,33.842 104.4598,34 103.9998,34 C103.8698,34 103.7378,33.988 103.6078,33.96 L83.6078,29.96 C82.6738,29.774 81.9998,28.954 81.9998,28 L81.9998,16 C81.9998,14.896 82.8938,14 83.9998,14 L103.9998,14 C105.1058,14 105.9998,14.896 105.9998,16 L105.9998,32 Z M81.9998,40 C81.9998,38.896 82.8938,38 83.9998,38 L87.9998,38 C89.1058,38 89.9998,38.896 89.9998,40 C89.9998,41.104 89.1058,42 87.9998,42 L83.9998,42 C82.8938,42 81.9998,41.104 81.9998,40 L81.9998,40 Z M105.9998,68 L105.9998,72 L103.8578,72 C103.8358,71.846 103.7978,71.696 103.7698,71.544 C103.7358,71.354 103.7038,71.166 103.6638,70.98 C103.6058,70.724 103.5378,70.472 103.4678,70.222 C103.4178,70.048 103.3738,69.872 103.3178,69.7 C103.2318,69.436 103.1338,69.18 103.0318,68.922 C102.9738,68.774 102.9218,68.622 102.8598,68.474 C102.7298,68.176 102.5858,67.888 102.4378,67.602 C102.3858,67.504 102.3438,67.4 102.2898,67.304 C102.0818,66.922 101.8578,66.552 101.6138,66.194 C101.5718,66.128 101.5218,66.07 101.4758,66.006 C101.2738,65.716 101.0658,65.432 100.8418,65.158 C100.7498,65.044 100.6458,64.938 100.5498,64.826 C100.3638,64.612 100.1778,64.4 99.9798,64.2 C99.8618,64.08 99.7378,63.968 99.6158,63.852 C99.4258,63.672 99.2338,63.492 99.0338,63.322 C98.8998,63.208 98.7598,63.1 98.6198,62.992 C98.4198,62.834 98.2178,62.682 98.0098,62.536 C97.8598,62.43 97.7078,62.33 97.5538,62.232 C97.3438,62.096 97.1318,61.966 96.9138,61.842 C96.7518,61.75 96.5898,61.662 96.4258,61.576 C96.2038,61.46 95.9758,61.352 95.7478,61.248 C95.5798,61.172 95.4098,61.096 95.2378,61.026 C94.9998,60.93 94.7578,60.844 94.5138,60.762 C94.3418,60.702 94.1718,60.64 93.9958,60.588 C93.7378,60.512 93.4758,60.45 93.2138,60.386 C93.0438,60.346 92.8758,60.302 92.7038,60.268 C92.4118,60.21 92.1118,60.17 91.8118,60.13 C91.6638,60.112 91.5198,60.084 91.3698,60.07 C90.9198,60.026 90.4618,60 89.9998,60 C89.5378,60 89.0798,60.026 88.6298,60.07 C88.4798,60.084 88.3358,60.112 88.1878,60.13 C87.8878,60.17 87.5898,60.21 87.2958,60.268 C87.1238,60.302 86.9558,60.346 86.7878,60.386 C86.5238,60.448 86.2618,60.512 86.0038,60.588 C85.8298,60.64 85.6578,60.702 85.4858,60.762 C85.2418,60.844 84.9998,60.93 84.7618,61.026 C84.5898,61.096 84.4218,61.172 84.2518,61.248 C84.0238,61.352 83.7978,61.46 83.5738,61.576 C83.4098,61.662 83.2478,61.75 83.0858,61.842 C82.8678,61.966 82.6558,62.096 82.4438,62.232 C82.2918,62.33 82.1398,62.43 81.9898,62.534 C81.7818,62.68 81.5798,62.834 81.3798,62.992 C81.2398,63.1 81.1018,63.208 80.9658,63.322 C80.7658,63.492 80.5738,63.672 80.3838,63.852 C80.2618,63.968 80.1378,64.08 80.0198,64.2 C79.8218,64.4 79.6358,64.612 79.4498,64.826 C79.3538,64.938 79.2518,65.044 79.1578,65.158 C78.9318,65.434 78.7198,65.722 78.5158,66.014 C78.4738,66.076 78.4278,66.132 78.3858,66.192 C78.1438,66.552 77.9178,66.922 77.7098,67.304 C77.6558,67.4 77.6138,67.504 77.5618,67.602 C77.4138,67.888 77.2698,68.176 77.1418,68.474 C77.0778,68.622 77.0258,68.774 76.9678,68.922 C76.8658,69.18 76.7678,69.436 76.6818,69.7 C76.6258,69.872 76.5818,70.046 76.5338,70.22 C76.4618,70.472 76.3938,70.724 76.3378,70.982 C76.2958,71.166 76.2638,71.354 76.2298,71.542 C76.2018,71.694 76.1658,71.844 76.1418,72 L73.9998,72 L73.9998,68 L73.9998,65.396 C73.9998,61.318 77.3178,58 81.3958,58 L98.6038,58 C99.5438,58 100.4358,58.194 101.2638,58.516 C101.2678,58.516 101.2718,58.52 101.2758,58.522 C101.5418,58.626 101.7898,58.756 102.0398,58.886 C102.1718,58.956 102.3038,59.022 102.4318,59.1 C102.6338,59.22 102.8238,59.354 103.0118,59.492 C103.1978,59.632 103.3778,59.78 103.5498,59.936 C103.6758,60.05 103.8058,60.162 103.9238,60.282 C104.2158,60.586 104.4918,60.908 104.7298,61.258 C104.7398,61.274 104.7478,61.29 104.7578,61.306 C104.9878,61.65 105.1818,62.018 105.3518,62.4 C105.3998,62.506 105.4398,62.618 105.4818,62.726 C105.6018,63.036 105.7018,63.354 105.7798,63.682 C105.8078,63.804 105.8398,63.924 105.8638,64.048 C105.9438,64.486 105.9998,64.934 105.9998,65.396 L105.9998,68 Z M89.9998,80 C86.6918,80 83.9998,77.308 83.9998,74 C83.9998,70.692 86.6918,68 89.9998,68 C93.3078,68 95.9998,70.692 95.9998,74 C95.9998,77.308 93.3078,80 89.9998,80 L89.9998,80 Z M69.9098,4.56 C69.8898,4.63 69.8698,4.7 69.8538,4.77 C69.7718,5.128 69.7098,5.492 69.6978,5.872 L68.0058,51.584 C67.9898,52.006 68.0158,52.422 68.0818,52.83 C68.0978,52.92 68.1338,53.004 68.1518,53.092 C68.2158,53.4 68.2838,53.708 68.3938,54 L64.3438,54 C63.7438,54 63.1858,53.762 62.7698,53.332 C62.3538,52.9 62.1358,52.332 62.1578,51.734 L63.8518,6.018 C63.8898,4.968 64.7598,4.138 65.8018,4.138 C65.8498,4.136 65.8978,4.14 65.9458,4.14 L70.0218,4.14 C69.9738,4.276 69.9478,4.42 69.9098,4.56 L69.9098,4.56 Z M31.9998,68 L31.9998,72 L31.8578,72 C31.8358,71.846 31.7978,71.696 31.7698,71.544 C31.7358,71.354 31.7038,71.166 31.6638,70.98 C31.6058,70.724 31.5378,70.472 31.4678,70.222 C31.4178,70.048 31.3738,69.872 31.3178,69.7 C31.2318,69.436 31.1338,69.18 31.0318,68.922 C30.9738,68.774 30.9218,68.622 30.8598,68.474 C30.7298,68.176 30.5858,67.888 30.4378,67.602 C30.3858,67.504 30.3438,67.4 30.2898,67.304 C30.0818,66.922 29.8578,66.552 29.6138,66.194 C29.5718,66.128 29.5218,66.07 29.4758,66.006 C29.2738,65.716 29.0658,65.432 28.8418,65.158 C28.7498,65.044 28.6458,64.938 28.5498,64.826 C28.3638,64.612 28.1778,64.4 27.9798,64.2 C27.8618,64.08 27.7378,63.968 27.6158,63.852 C27.4258,63.672 27.2338,63.492 27.0338,63.322 C26.8998,63.208 26.7598,63.1 26.6198,62.992 C26.4198,62.834 26.2178,62.682 26.0098,62.536 C25.8598,62.43 25.7078,62.33 25.5538,62.232 C25.3438,62.096 25.1318,61.966 24.9138,61.842 C24.7518,61.75 24.5898,61.662 24.4258,61.576 C24.2038,61.46 23.9758,61.352 23.7478,61.248 C23.5798,61.172 23.4098,61.096 23.2378,61.026 C22.9998,60.93 22.7578,60.844 22.5138,60.762 C22.3418,60.702 22.1718,60.64 21.9958,60.588 C21.7378,60.512 21.4758,60.45 21.2138,60.386 C21.0438,60.346 20.8758,60.302 20.7038,60.268 C20.4118,60.21 20.1118,60.17 19.8118,60.13 C19.6638,60.112 19.5198,60.084 19.3698,60.07 C18.9198,60.026 18.4618,60 17.9998,60 C17.5378,60 17.0798,60.026 16.6298,60.07 C16.4798,60.084 16.3358,60.112 16.1878,60.13 C15.8878,60.17 15.5898,60.21 15.2958,60.268 C15.1238,60.302 14.9558,60.346 14.7878,60.386 C14.5238,60.448 14.2618,60.512 14.0038,60.588 C13.8298,60.64 13.6578,60.702 13.4858,60.762 C13.2418,60.844 12.9998,60.93 12.7618,61.026 C12.5898,61.096 12.4218,61.172 12.2518,61.248 C12.0238,61.352 11.7978,61.46 11.5738,61.576 C11.4098,61.662 11.2478,61.75 11.0858,61.842 C10.8678,61.966 10.6558,62.096 10.4438,62.232 C10.2918,62.33 10.1398,62.43 9.9898,62.534 C9.7818,62.68 9.5798,62.834 9.3798,62.992 C9.2398,63.1 9.1018,63.208 8.9658,63.322 C8.7658,63.492 8.5738,63.672 8.3838,63.852 C8.2618,63.968 8.1378,64.08 8.0198,64.2 C7.8218,64.4 7.6358,64.612 7.4498,64.826 C7.3538,64.938 7.2518,65.044 7.1578,65.158 C6.9318,65.434 6.7198,65.722 6.5158,66.014 C6.4738,66.076 6.4278,66.132 6.3858,66.192 C6.1438,66.552 5.9178,66.922 5.7098,67.304 C5.6558,67.4 5.6138,67.504 5.5618,67.602 C5.4138,67.888 5.2698,68.176 5.1418,68.474 C5.0778,68.622 5.0258,68.774 4.9678,68.922 C4.8658,69.18 4.7678,69.436 4.6818,69.7 C4.6258,69.872 4.5818,70.046 4.5338,70.22 C4.4618,70.472 4.3938,70.724 4.3378,70.982 C4.2958,71.166 4.2638,71.354 4.2298,71.542 C4.2018,71.694 4.1658,71.844 4.1418,72 L3.9998,72 L3.9998,68.874 C3.9998,62.878 8.8798,58 14.8758,58 L23.9998,58 L31.9998,58 L31.9998,68 Z M17.9998,80 C14.6918,80 11.9998,77.308 11.9998,74 C11.9998,70.692 14.6918,68 17.9998,68 C21.3078,68 23.9998,70.692 23.9998,74 C23.9998,77.308 21.3078,80 17.9998,80 L17.9998,80 Z M119.9538,29.568 C115.6578,10.122 107.0498,0.744 92.7558,0.048 L75.8598,0.142 C75.7258,0.138 75.5958,0.136 75.4658,0.14 L65.9778,0.14 C62.6658,0.066 59.9738,2.608 59.8558,5.872 L58.1618,51.584 C58.1318,52.424 58.2678,53.24 58.5538,54 L41.9998,54 L41.9998,48 C41.9998,46.896 41.1058,46 39.9998,46 L31.9998,46 L23.9998,46 C22.8938,46 21.9998,46.896 21.9998,48 L21.9998,54 L14.8758,54 C6.6738,54 -0.0002,60.672 -0.0002,68.874 L-0.0002,74 C-0.0002,75.104 0.8938,76 1.9998,76 L4.1598,76 C5.1358,82.774 10.9618,88 17.9998,88 C25.0378,88 30.8638,82.774 31.8398,76 L33.9998,76 C35.1058,76 35.9998,75.104 35.9998,74 L35.9998,70 L69.9998,70 L69.9998,74 C69.9998,75.104 70.8938,76 71.9998,76 L76.1598,76 C77.1358,82.774 82.9618,88 89.9998,88 C97.0378,88 102.8638,82.774 103.8398,76 L107.9998,76 C109.1058,76 109.9998,75.104 109.9998,74 L109.9998,70 L115.9998,70 C116.9778,70 117.8118,69.292 117.9718,68.33 L119.2198,60.842 C119.4778,59.292 119.0778,57.732 118.1698,56.468 C119.2878,55.43 119.9998,53.958 119.9998,52.316 L119.9998,52 L109.9998,52 C108.8938,52 107.9998,51.104 107.9998,50 L107.9998,40 C107.9998,38.896 108.8938,38 109.9998,38 L119.9998,38 L119.9998,30 C119.9998,29.854 119.9838,29.71 119.9538,29.568 L119.9538,29.568 Z" id="Fill-163"></path>
        </g>
    </g>
</svg>
