<svg id="Layer_1" data-name="Layer 1" xmlns="http://www.w3.org/2000/svg" viewBox="0 0 92 120"><defs><style>.cls-1{fill:#fff;}</style></defs><g id="Page-1"><g id="g83"><path id="Fill-83" class="cls-1" d="M82,85.78,62.92,76.22A5.26,5.26,0,0,1,60,71.5V64.73c.46-.56.94-1.2,1.44-1.9a45.71,45.71,0,0,0,5.91-11.6A7.94,7.94,0,0,0,72,44V36a8,8,0,0,0-2-5.25V20.11A17.93,17.93,0,0,0,65.82,7.06C61.71,2.37,55,0,46,0S30.29,2.37,26.18,7.06A17.93,17.93,0,0,0,22,20.11V30.75A8,8,0,0,0,20,36v8a8,8,0,0,0,3,6.22,42,42,0,0,0,7,14.48v6.62A5.29,5.29,0,0,1,27.25,76L9.4,85.68A18,18,0,0,0,0,101.52V108c0,9.49,30.09,12,46,12s46-2.51,46-12v-6.09A18,18,0,0,0,82,85.78" transform="translate(0 0)"/></g></g></svg>
