<?xml version="1.0" encoding="UTF-8" standalone="no"?>
<svg width="116px" height="116px" viewBox="0 0 116 116" version="1.1" xmlns="http://www.w3.org/2000/svg" xmlns:xlink="http://www.w3.org/1999/xlink" xmlns:sketch="http://www.bohemiancoding.com/sketch/ns">
    <!-- Generator: Sketch 3.3.2 (12043) - http://www.bohemiancoding.com/sketch -->
    <title>g227</title>
    <desc>Created with Sketch.</desc>
    <defs></defs>
    <g id="Page-1" stroke="none" stroke-width="1" fill="none" fill-rule="evenodd" sketch:type="MSPage">
        <g id="g227" sketch:type="MSLayerGroup" fill="#999999">
            <path d="M60,56 L83.944,56 C83.698,47.304 81.88,38.866 78.616,31.046 C72.596,32.794 66.354,33.756 60,33.926 L60,56" id="Fill-956" sketch:type="MSShapeGroup"></path>
            <path d="M80.818,26.144 C86.674,24.124 92.28,21.36 97.474,17.806 L98.782,16.806 C89.228,7.346 76.41,1.19 62.192,0.168 L61.156,1.01 C69.586,7.988 76.248,16.566 80.818,26.144" id="Fill-957" sketch:type="MSShapeGroup"></path>
            <path d="M60,5.286 L60,29.926 C65.782,29.762 71.462,28.898 76.946,27.358 C72.892,19.042 67.166,11.536 60,5.286" id="Fill-958" sketch:type="MSShapeGroup"></path>
            <path d="M83.114,84.434 C89.374,86.698 95.354,89.77 100.882,93.71 L102.618,95.01 C110.572,85.44 115.496,73.278 115.95,60 L87.944,60 C87.718,68.478 86.064,76.716 83.114,84.434" id="Fill-959" sketch:type="MSShapeGroup"></path>
            <path d="M18.526,17.806 C23.72,21.362 29.326,24.124 35.182,26.144 C39.752,16.568 46.416,7.99 54.846,1.01 L53.808,0.168 C39.558,1.192 26.714,7.374 17.152,16.868 L18.526,17.806" id="Fill-960" sketch:type="MSShapeGroup"></path>
            <path d="M56,5.286 C48.834,11.538 43.108,19.042 39.054,27.358 C44.538,28.898 50.218,29.762 56,29.926 L56,5.286" id="Fill-961" sketch:type="MSShapeGroup"></path>
            <path d="M28.056,60 L0.05,60 C0.504,73.278 5.428,85.438 13.38,95.01 L15.08,93.738 C20.63,89.784 26.622,86.704 32.892,84.434 C29.936,76.712 28.282,68.476 28.056,60" id="Fill-962" sketch:type="MSShapeGroup"></path>
            <path d="M33.556,29.81 C27.482,27.682 21.664,24.8 16.268,21.108 L14.39,19.824 C5.854,29.566 0.522,42.174 0.05,56 L28.056,56 C28.298,46.88 30.172,38.024 33.556,29.81" id="Fill-963" sketch:type="MSShapeGroup"></path>
            <path d="M32.056,56 L56,56 L56,33.926 C49.642,33.756 43.398,32.794 37.382,31.05 C34.12,38.87 32.302,47.304 32.056,56" id="Fill-964" sketch:type="MSShapeGroup"></path>
            <path d="M54.644,114.812 C45.808,107.422 38.962,98.294 34.422,88.13 C28.438,90.276 22.72,93.204 17.438,96.968 L16.06,98 C25.608,108.006 38.68,114.606 53.27,115.792 L54.644,114.812" id="Fill-965" sketch:type="MSShapeGroup"></path>
            <path d="M56,80.076 L56,60 L32.056,60 C32.282,68.038 33.866,75.848 36.682,83.16 C42.91,81.284 49.388,80.252 56,80.076" id="Fill-966" sketch:type="MSShapeGroup"></path>
            <path d="M98.524,96.942 C93.262,93.192 87.56,90.272 81.584,88.13 C77.04,98.316 70.188,107.452 61.358,114.816 L62.728,115.792 C77.316,114.608 90.39,108.006 99.938,98 L98.524,96.942" id="Fill-967" sketch:type="MSShapeGroup"></path>
            <path d="M99.82,21.044 C94.38,24.768 88.534,27.668 82.442,29.804 C85.828,38.022 87.702,46.878 87.944,56 L115.95,56 C115.476,42.13 110.114,29.488 101.532,19.734 L99.82,21.044" id="Fill-968" sketch:type="MSShapeGroup"></path>
            <path d="M56,110.714 L56,84.076 C49.922,84.248 43.968,85.188 38.236,86.876 C42.322,95.894 48.332,104.026 56,110.714" id="Fill-969" sketch:type="MSShapeGroup"></path>
            <path d="M83.944,60 L60,60 L60,80.076 C66.614,80.252 73.096,81.284 79.324,83.16 C82.134,75.85 83.718,68.04 83.944,60" id="Fill-970" sketch:type="MSShapeGroup"></path>
            <path d="M77.77,86.876 C72.038,85.188 66.08,84.248 60,84.076 L60,110.724 C67.662,104.056 73.678,95.916 77.77,86.876" id="Fill-971" sketch:type="MSShapeGroup"></path>
        </g>
    </g>
</svg>
